<?xml version="1.0" encoding="utf-8" standalone="no"?>
<!DOCTYPE svg PUBLIC "-//W3C//DTD SVG 1.1//EN"
  "http://www.w3.org/Graphics/SVG/1.1/DTD/svg11.dtd">
<svg xmlns:xlink="http://www.w3.org/1999/xlink" width="856.787049pt" height="529.523517pt" viewBox="0 0 856.787049 529.523517" xmlns="http://www.w3.org/2000/svg" version="1.1">
 <metadata>
  <rdf:RDF xmlns:dc="http://purl.org/dc/elements/1.1/" xmlns:cc="http://creativecommons.org/ns#" xmlns:rdf="http://www.w3.org/1999/02/22-rdf-syntax-ns#">
   <cc:Work>
    <dc:type rdf:resource="http://purl.org/dc/dcmitype/StillImage"/>
    <dc:date>2025-07-02T13:53:12.121222</dc:date>
    <dc:format>image/svg+xml</dc:format>
    <dc:creator>
     <cc:Agent>
      <dc:title>Matplotlib v3.7.5, https://matplotlib.org/</dc:title>
     </cc:Agent>
    </dc:creator>
   </cc:Work>
  </rdf:RDF>
 </metadata>
 <defs>
  <style type="text/css">*{stroke-linejoin: round; stroke-linecap: butt}</style>
 </defs>
 <g id="figure_1">
  <g id="patch_1">
   <path d="M 0 529.523517 
L 856.787049 529.523517 
L 856.787049 0 
L 0 0 
z
" style="fill: #ffffff"/>
  </g>
  <g id="axes_1">
   <g id="patch_2">
    <path d="M 107.098381 471.27593 
L 771.108344 471.27593 
L 771.108344 63.542822 
L 107.098381 63.542822 
z
" style="fill: #ffffff"/>
   </g>
   <g id="PathCollection_1">
    <defs>
     <path id="mdae73850cf" d="M 0 3 
C 0.795609 3 1.55874 2.683901 2.12132 2.12132 
C 2.683901 1.55874 3 0.795609 3 0 
C 3 -0.795609 2.683901 -1.55874 2.12132 -2.12132 
C 1.55874 -2.683901 0.795609 -3 0 -3 
C -0.795609 -3 -1.55874 -2.683901 -2.12132 -2.12132 
C -2.683901 -1.55874 -3 -0.795609 -3 0 
C -3 0.795609 -2.683901 1.55874 -2.12132 2.12132 
C -1.55874 2.683901 -0.795609 3 0 3 
z
" style="stroke: #1f77b4"/>
    </defs>
    <g clip-path="url(#p7db75ebc10)">
     <use xlink:href="#mdae73850cf" x="740.926073" y="276.024088" style="fill: #1f77b4; stroke: #1f77b4"/>
     <use xlink:href="#mdae73850cf" x="628.694517" y="350.372625" style="fill: #1f77b4; stroke: #1f77b4"/>
     <use xlink:href="#mdae73850cf" x="516.627428" y="304.840296" style="fill: #1f77b4; stroke: #1f77b4"/>
     <use xlink:href="#mdae73850cf" x="401.115822" y="293.897871" style="fill: #1f77b4; stroke: #1f77b4"/>
     <use xlink:href="#mdae73850cf" x="290.966195" y="448.699447" style="fill: #1f77b4; stroke: #1f77b4"/>
     <use xlink:href="#mdae73850cf" x="320.686446" y="364.783948" style="fill: #1f77b4; stroke: #1f77b4"/>
     <use xlink:href="#mdae73850cf" x="433.083012" y="375.178385" style="fill: #1f77b4; stroke: #1f77b4"/>
     <use xlink:href="#mdae73850cf" x="642.845649" y="211.308988" style="fill: #1f77b4; stroke: #1f77b4"/>
     <use xlink:href="#mdae73850cf" x="530.77856" y="290.123043" style="fill: #1f77b4; stroke: #1f77b4"/>
     <use xlink:href="#mdae73850cf" x="418.875394" y="360.684517" style="fill: #1f77b4; stroke: #1f77b4"/>
     <use xlink:href="#mdae73850cf" x="154.43455" y="372.591112" style="fill: #1f77b4; stroke: #1f77b4"/>
     <use xlink:href="#mdae73850cf" x="346.377019" y="339.173799" style="fill: #1f77b4; stroke: #1f77b4"/>
     <use xlink:href="#mdae73850cf" x="233.980453" y="344.434017" style="fill: #1f77b4; stroke: #1f77b4"/>
     <use xlink:href="#mdae73850cf" x="345.704999" y="293.359947" style="fill: #1f77b4; stroke: #1f77b4"/>
     <use xlink:href="#mdae73850cf" x="139.981912" y="359.563771" style="fill: #1f77b4; stroke: #1f77b4"/>
     <use xlink:href="#mdae73850cf" x="476.677123" y="445.366338" style="fill: #1f77b4; stroke: #1f77b4"/>
     <use xlink:href="#mdae73850cf" x="357.372014" y="319.938867" style="fill: #1f77b4; stroke: #1f77b4"/>
     <use xlink:href="#mdae73850cf" x="469.768579" y="425.474061" style="fill: #1f77b4; stroke: #1f77b4"/>
     <use xlink:href="#mdae73850cf" x="582.000135" y="452.742607" style="fill: #1f77b4; stroke: #1f77b4"/>
     <use xlink:href="#mdae73850cf" x="681.112014" y="339.500888" style="fill: #1f77b4; stroke: #1f77b4"/>
     <use xlink:href="#mdae73850cf" x="633.945767" y="343.522456" style="fill: #1f77b4; stroke: #1f77b4"/>
     <use xlink:href="#mdae73850cf" x="521.878678" y="314.62115" style="fill: #1f77b4; stroke: #1f77b4"/>
     <use xlink:href="#mdae73850cf" x="463.87166" y="302.242097" style="fill: #1f77b4; stroke: #1f77b4"/>
     <use xlink:href="#mdae73850cf" x="399.799002" y="285.212588" style="fill: #1f77b4; stroke: #1f77b4"/>
     <use xlink:href="#mdae73850cf" x="287.567446" y="333.598425" style="fill: #1f77b4; stroke: #1f77b4"/>
     <use xlink:href="#mdae73850cf" x="330.831111" y="356.579996" style="fill: #1f77b4; stroke: #1f77b4"/>
     <use xlink:href="#mdae73850cf" x="218.434545" y="363.919811" style="fill: #1f77b4; stroke: #1f77b4"/>
     <use xlink:href="#mdae73850cf" x="137.280652" y="417.056302" style="fill: #1f77b4; stroke: #1f77b4"/>
     <use xlink:href="#mdae73850cf" x="249.347742" y="443.465358" style="fill: #1f77b4; stroke: #1f77b4"/>
     <use xlink:href="#mdae73850cf" x="143.063693" y="394.784543" style="fill: #1f77b4; stroke: #1f77b4"/>
     <use xlink:href="#mdae73850cf" x="212.816515" y="406.090762" style="fill: #1f77b4; stroke: #1f77b4"/>
     <use xlink:href="#mdae73850cf" x="301.107998" y="403.969502" style="fill: #1f77b4; stroke: #1f77b4"/>
     <use xlink:href="#mdae73850cf" x="569.5923" y="322.870655" style="fill: #1f77b4; stroke: #1f77b4"/>
     <use xlink:href="#mdae73850cf" x="301.085402" y="408.158398" style="fill: #1f77b4; stroke: #1f77b4"/>
     <use xlink:href="#mdae73850cf" x="185.158112" y="417.330278" style="fill: #1f77b4; stroke: #1f77b4"/>
     <use xlink:href="#mdae73850cf" x="170.228695" y="364.104285" style="fill: #1f77b4; stroke: #1f77b4"/>
     <use xlink:href="#mdae73850cf" x="153.546497" y="418.99074" style="fill: #1f77b4; stroke: #1f77b4"/>
     <use xlink:href="#mdae73850cf" x="265.613587" y="410.452387" style="fill: #1f77b4; stroke: #1f77b4"/>
     <use xlink:href="#mdae73850cf" x="377.516752" y="397.774594" style="fill: #1f77b4; stroke: #1f77b4"/>
     <use xlink:href="#mdae73850cf" x="343.636136" y="390.539276" style="fill: #1f77b4; stroke: #1f77b4"/>
     <use xlink:href="#mdae73850cf" x="455.703226" y="377.931733" style="fill: #1f77b4; stroke: #1f77b4"/>
     <use xlink:href="#mdae73850cf" x="567.606391" y="337.075123" style="fill: #1f77b4; stroke: #1f77b4"/>
     <use xlink:href="#mdae73850cf" x="516.334339" y="359.471352" style="fill: #1f77b4; stroke: #1f77b4"/>
     <use xlink:href="#mdae73850cf" x="628.401429" y="316.537683" style="fill: #1f77b4; stroke: #1f77b4"/>
     <use xlink:href="#mdae73850cf" x="556.710457" y="82.076145" style="fill: #1f77b4; stroke: #1f77b4"/>
     <use xlink:href="#mdae73850cf" x="668.942012" y="291.258425" style="fill: #1f77b4; stroke: #1f77b4"/>
     <use xlink:href="#mdae73850cf" x="569.5923" y="330.133795" style="fill: #1f77b4; stroke: #1f77b4"/>
    </g>
   </g>
   <g id="matplotlib.axis_1">
    <g id="xtick_1">
     <g id="line2d_1">
      <path d="M 121.741821 471.27593 
L 121.741821 63.542822 
" clip-path="url(#p7db75ebc10)" style="fill: none; stroke: #b0b0b0; stroke-width: 0.8; stroke-linecap: square"/>
     </g>
     <g id="line2d_2">
      <defs>
       <path id="mad14d1ac20" d="M 0 0 
L 0 3.5 
" style="stroke: #000000; stroke-width: 0.8"/>
      </defs>
      <g>
       <use xlink:href="#mad14d1ac20" x="121.741821" y="471.27593" style="stroke: #000000; stroke-width: 0.8"/>
      </g>
     </g>
     <g id="text_1">
      <!-- $\mathdefault{0.0}$ -->
      <g transform="translate(115.376781 485.194429) scale(0.1 -0.1)">
       <defs>
        <path id="CMR17-30" d="M 2688 2025 
C 2688 2416 2682 3080 2413 3591 
C 2176 4039 1798 4198 1466 4198 
C 1158 4198 768 4058 525 3597 
C 269 3118 243 2524 243 2025 
C 243 1661 250 1106 448 619 
C 723 -39 1216 -128 1466 -128 
C 1760 -128 2208 -7 2470 600 
C 2662 1042 2688 1559 2688 2025 
z
M 1466 -26 
C 1056 -26 813 325 723 812 
C 653 1188 653 1738 653 2096 
C 653 2588 653 2997 736 3387 
C 858 3929 1216 4096 1466 4096 
C 1728 4096 2067 3923 2189 3400 
C 2272 3036 2278 2607 2278 2096 
C 2278 1680 2278 1169 2202 792 
C 2067 95 1690 -26 1466 -26 
z
" transform="scale(0.015625)"/>
        <path id="CMMI12-3a" d="M 1178 307 
C 1178 492 1024 619 870 619 
C 685 619 557 466 557 313 
C 557 128 710 0 864 0 
C 1050 0 1178 153 1178 307 
z
" transform="scale(0.015625)"/>
       </defs>
       <use xlink:href="#CMR17-30" transform="scale(0.996264)"/>
       <use xlink:href="#CMMI12-3a" transform="translate(45.690477 0) scale(0.996264)"/>
       <use xlink:href="#CMR17-30" transform="translate(72.787654 0) scale(0.996264)"/>
      </g>
     </g>
    </g>
    <g id="xtick_2">
     <g id="line2d_3">
      <path d="M 201.736577 471.27593 
L 201.736577 63.542822 
" clip-path="url(#p7db75ebc10)" style="fill: none; stroke: #b0b0b0; stroke-width: 0.8; stroke-linecap: square"/>
     </g>
     <g id="line2d_4">
      <g>
       <use xlink:href="#mad14d1ac20" x="201.736577" y="471.27593" style="stroke: #000000; stroke-width: 0.8"/>
      </g>
     </g>
     <g id="text_2">
      <!-- $\mathdefault{0.5}$ -->
      <g transform="translate(195.371537 485.194429) scale(0.1 -0.1)">
       <defs>
        <path id="CMR17-35" d="M 730 3692 
C 794 3666 1056 3584 1325 3584 
C 1920 3584 2246 3911 2432 4100 
C 2432 4157 2432 4192 2394 4192 
C 2387 4192 2374 4192 2323 4163 
C 2099 4058 1837 3973 1517 3973 
C 1325 3973 1037 3999 723 4139 
C 653 4171 640 4171 634 4171 
C 602 4171 595 4164 595 4037 
L 595 2203 
C 595 2089 595 2057 659 2057 
C 691 2057 704 2070 736 2114 
C 941 2401 1222 2522 1542 2522 
C 1766 2522 2246 2382 2246 1289 
C 2246 1085 2246 715 2054 421 
C 1894 159 1645 25 1370 25 
C 947 25 518 320 403 814 
C 429 807 480 795 506 795 
C 589 795 749 840 749 1038 
C 749 1210 627 1280 506 1280 
C 358 1280 262 1190 262 1011 
C 262 454 704 -128 1382 -128 
C 2042 -128 2669 440 2669 1264 
C 2669 2030 2170 2624 1549 2624 
C 1222 2624 947 2503 730 2274 
L 730 3692 
z
" transform="scale(0.015625)"/>
       </defs>
       <use xlink:href="#CMR17-30" transform="scale(0.996264)"/>
       <use xlink:href="#CMMI12-3a" transform="translate(45.690477 0) scale(0.996264)"/>
       <use xlink:href="#CMR17-35" transform="translate(72.787654 0) scale(0.996264)"/>
      </g>
     </g>
    </g>
    <g id="xtick_3">
     <g id="line2d_5">
      <path d="M 281.731333 471.27593 
L 281.731333 63.542822 
" clip-path="url(#p7db75ebc10)" style="fill: none; stroke: #b0b0b0; stroke-width: 0.8; stroke-linecap: square"/>
     </g>
     <g id="line2d_6">
      <g>
       <use xlink:href="#mad14d1ac20" x="281.731333" y="471.27593" style="stroke: #000000; stroke-width: 0.8"/>
      </g>
     </g>
     <g id="text_3">
      <!-- $\mathdefault{1.0}$ -->
      <g transform="translate(275.366293 485.194429) scale(0.1 -0.1)">
       <defs>
        <path id="CMR17-31" d="M 1702 4058 
C 1702 4192 1696 4192 1606 4192 
C 1357 3916 979 3827 621 3827 
C 602 3827 570 3827 563 3808 
C 557 3795 557 3782 557 3648 
C 755 3648 1088 3686 1344 3839 
L 1344 461 
C 1344 236 1331 160 781 160 
L 589 160 
L 589 0 
C 896 0 1216 0 1523 0 
C 1830 0 2150 0 2458 0 
L 2458 160 
L 2266 160 
C 1715 160 1702 230 1702 458 
L 1702 4058 
z
" transform="scale(0.015625)"/>
       </defs>
       <use xlink:href="#CMR17-31" transform="scale(0.996264)"/>
       <use xlink:href="#CMMI12-3a" transform="translate(45.690477 0) scale(0.996264)"/>
       <use xlink:href="#CMR17-30" transform="translate(72.787654 0) scale(0.996264)"/>
      </g>
     </g>
    </g>
    <g id="xtick_4">
     <g id="line2d_7">
      <path d="M 361.726089 471.27593 
L 361.726089 63.542822 
" clip-path="url(#p7db75ebc10)" style="fill: none; stroke: #b0b0b0; stroke-width: 0.8; stroke-linecap: square"/>
     </g>
     <g id="line2d_8">
      <g>
       <use xlink:href="#mad14d1ac20" x="361.726089" y="471.27593" style="stroke: #000000; stroke-width: 0.8"/>
      </g>
     </g>
     <g id="text_4">
      <!-- $\mathdefault{1.5}$ -->
      <g transform="translate(355.361049 485.194429) scale(0.1 -0.1)">
       <use xlink:href="#CMR17-31" transform="scale(0.996264)"/>
       <use xlink:href="#CMMI12-3a" transform="translate(45.690477 0) scale(0.996264)"/>
       <use xlink:href="#CMR17-35" transform="translate(72.787654 0) scale(0.996264)"/>
      </g>
     </g>
    </g>
    <g id="xtick_5">
     <g id="line2d_9">
      <path d="M 441.720845 471.27593 
L 441.720845 63.542822 
" clip-path="url(#p7db75ebc10)" style="fill: none; stroke: #b0b0b0; stroke-width: 0.8; stroke-linecap: square"/>
     </g>
     <g id="line2d_10">
      <g>
       <use xlink:href="#mad14d1ac20" x="441.720845" y="471.27593" style="stroke: #000000; stroke-width: 0.8"/>
      </g>
     </g>
     <g id="text_5">
      <!-- $\mathdefault{2.0}$ -->
      <g transform="translate(435.355805 485.194429) scale(0.1 -0.1)">
       <defs>
        <path id="CMR17-32" d="M 2669 989 
L 2554 989 
C 2490 536 2438 459 2413 420 
C 2381 369 1920 369 1830 369 
L 602 369 
C 832 619 1280 1072 1824 1597 
C 2214 1967 2669 2402 2669 3035 
C 2669 3790 2067 4224 1395 4224 
C 691 4224 262 3604 262 3030 
C 262 2780 448 2748 525 2748 
C 589 2748 781 2787 781 3010 
C 781 3207 614 3264 525 3264 
C 486 3264 448 3258 422 3245 
C 544 3790 915 4058 1306 4058 
C 1862 4058 2227 3617 2227 3035 
C 2227 2479 1901 2000 1536 1584 
L 262 146 
L 262 0 
L 2515 0 
L 2669 989 
z
" transform="scale(0.015625)"/>
       </defs>
       <use xlink:href="#CMR17-32" transform="scale(0.996264)"/>
       <use xlink:href="#CMMI12-3a" transform="translate(45.690477 0) scale(0.996264)"/>
       <use xlink:href="#CMR17-30" transform="translate(72.787654 0) scale(0.996264)"/>
      </g>
     </g>
    </g>
    <g id="xtick_6">
     <g id="line2d_11">
      <path d="M 521.7156 471.27593 
L 521.7156 63.542822 
" clip-path="url(#p7db75ebc10)" style="fill: none; stroke: #b0b0b0; stroke-width: 0.8; stroke-linecap: square"/>
     </g>
     <g id="line2d_12">
      <g>
       <use xlink:href="#mad14d1ac20" x="521.7156" y="471.27593" style="stroke: #000000; stroke-width: 0.8"/>
      </g>
     </g>
     <g id="text_6">
      <!-- $\mathdefault{2.5}$ -->
      <g transform="translate(515.350561 485.194429) scale(0.1 -0.1)">
       <use xlink:href="#CMR17-32" transform="scale(0.996264)"/>
       <use xlink:href="#CMMI12-3a" transform="translate(45.690477 0) scale(0.996264)"/>
       <use xlink:href="#CMR17-35" transform="translate(72.787654 0) scale(0.996264)"/>
      </g>
     </g>
    </g>
    <g id="xtick_7">
     <g id="line2d_13">
      <path d="M 601.710356 471.27593 
L 601.710356 63.542822 
" clip-path="url(#p7db75ebc10)" style="fill: none; stroke: #b0b0b0; stroke-width: 0.8; stroke-linecap: square"/>
     </g>
     <g id="line2d_14">
      <g>
       <use xlink:href="#mad14d1ac20" x="601.710356" y="471.27593" style="stroke: #000000; stroke-width: 0.8"/>
      </g>
     </g>
     <g id="text_7">
      <!-- $\mathdefault{3.0}$ -->
      <g transform="translate(595.345317 485.194429) scale(0.1 -0.1)">
       <defs>
        <path id="CMR17-33" d="M 1414 2157 
C 1984 2157 2234 1662 2234 1090 
C 2234 320 1824 25 1453 25 
C 1114 25 563 194 390 693 
C 422 680 454 680 486 680 
C 640 680 755 782 755 948 
C 755 1133 614 1216 486 1216 
C 378 1216 211 1165 211 926 
C 211 335 787 -128 1466 -128 
C 2176 -128 2720 430 2720 1085 
C 2720 1707 2208 2157 1600 2227 
C 2086 2328 2554 2756 2554 3329 
C 2554 3820 2048 4179 1472 4179 
C 890 4179 378 3829 378 3329 
C 378 3110 544 3072 627 3072 
C 762 3072 877 3155 877 3321 
C 877 3486 762 3569 627 3569 
C 602 3569 570 3569 544 3557 
C 730 3959 1235 4032 1459 4032 
C 1683 4032 2106 3925 2106 3320 
C 2106 3143 2080 2828 1862 2550 
C 1670 2304 1453 2304 1242 2284 
C 1210 2284 1062 2269 1037 2269 
C 992 2263 966 2257 966 2208 
C 966 2163 973 2157 1101 2157 
L 1414 2157 
z
" transform="scale(0.015625)"/>
       </defs>
       <use xlink:href="#CMR17-33" transform="scale(0.996264)"/>
       <use xlink:href="#CMMI12-3a" transform="translate(45.690477 0) scale(0.996264)"/>
       <use xlink:href="#CMR17-30" transform="translate(72.787654 0) scale(0.996264)"/>
      </g>
     </g>
    </g>
    <g id="xtick_8">
     <g id="line2d_15">
      <path d="M 681.705112 471.27593 
L 681.705112 63.542822 
" clip-path="url(#p7db75ebc10)" style="fill: none; stroke: #b0b0b0; stroke-width: 0.8; stroke-linecap: square"/>
     </g>
     <g id="line2d_16">
      <g>
       <use xlink:href="#mad14d1ac20" x="681.705112" y="471.27593" style="stroke: #000000; stroke-width: 0.8"/>
      </g>
     </g>
     <g id="text_8">
      <!-- $\mathdefault{3.5}$ -->
      <g transform="translate(675.340073 485.194429) scale(0.1 -0.1)">
       <use xlink:href="#CMR17-33" transform="scale(0.996264)"/>
       <use xlink:href="#CMMI12-3a" transform="translate(45.690477 0) scale(0.996264)"/>
       <use xlink:href="#CMR17-35" transform="translate(72.787654 0) scale(0.996264)"/>
      </g>
     </g>
    </g>
    <g id="xtick_9">
     <g id="line2d_17">
      <path d="M 761.699868 471.27593 
L 761.699868 63.542822 
" clip-path="url(#p7db75ebc10)" style="fill: none; stroke: #b0b0b0; stroke-width: 0.8; stroke-linecap: square"/>
     </g>
     <g id="line2d_18">
      <g>
       <use xlink:href="#mad14d1ac20" x="761.699868" y="471.27593" style="stroke: #000000; stroke-width: 0.8"/>
      </g>
     </g>
     <g id="text_9">
      <!-- $\mathdefault{4.0}$ -->
      <g transform="translate(755.334829 485.194429) scale(0.1 -0.1)">
       <defs>
        <path id="CMR17-34" d="M 2150 4122 
C 2150 4256 2144 4256 2029 4256 
L 128 1254 
L 128 1088 
L 1779 1088 
L 1779 457 
C 1779 224 1766 160 1318 160 
L 1197 160 
L 1197 0 
C 1402 0 1747 0 1965 0 
C 2182 0 2528 0 2733 0 
L 2733 160 
L 2611 160 
C 2163 160 2150 224 2150 457 
L 2150 1088 
L 2803 1088 
L 2803 1254 
L 2150 1254 
L 2150 4122 
z
M 1798 3703 
L 1798 1254 
L 256 1254 
L 1798 3703 
z
" transform="scale(0.015625)"/>
       </defs>
       <use xlink:href="#CMR17-34" transform="scale(0.996264)"/>
       <use xlink:href="#CMMI12-3a" transform="translate(45.690477 0) scale(0.996264)"/>
       <use xlink:href="#CMR17-30" transform="translate(72.787654 0) scale(0.996264)"/>
      </g>
     </g>
    </g>
    <g id="text_10">
     <!-- Transition Sensitivity / MHz/G -->
     <g transform="translate(362.581147 499.350785) scale(0.11 -0.11)">
      <defs>
       <path id="CMR17-54" d="M 3981 4326 
L 288 4326 
L 179 2918 
L 294 2918 
C 378 3976 467 4160 1453 4160 
C 1568 4160 1754 4160 1805 4154 
C 1926 4135 1926 4058 1926 3912 
L 1926 459 
C 1926 230 1907 160 1376 160 
L 1197 160 
L 1197 0 
C 1504 0 1824 0 2138 0 
C 2451 0 2771 0 3078 0 
L 3078 160 
L 2899 160 
C 2368 160 2349 230 2349 459 
L 2349 3912 
C 2349 4052 2349 4129 2464 4154 
C 2515 4160 2701 4160 2816 4160 
C 3795 4160 3891 3976 3974 2918 
L 4090 2918 
L 3981 4326 
z
" transform="scale(0.015625)"/>
       <path id="CMR17-72" d="M 960 1497 
C 960 2112 1222 2688 1702 2688 
C 1747 2688 1792 2682 1837 2662 
C 1837 2662 1696 2617 1696 2452 
C 1696 2298 1818 2234 1914 2234 
C 1990 2234 2131 2279 2131 2458 
C 2131 2663 1926 2790 1709 2790 
C 1222 2790 1011 2317 947 2093 
L 941 2093 
L 941 2790 
L 198 2720 
L 198 2554 
C 576 2554 634 2515 634 2208 
L 634 428 
C 634 184 608 153 198 153 
L 198 -13 
C 352 0 646 0 813 0 
C 998 0 1325 0 1498 -13 
L 1498 153 
C 1037 153 960 153 960 440 
L 960 1497 
z
" transform="scale(0.015625)"/>
       <path id="CMR17-61" d="M 2304 1653 
C 2304 2072 2304 2294 2035 2543 
C 1798 2752 1523 2816 1306 2816 
C 800 2816 435 2407 435 1971 
C 435 1728 627 1728 666 1728 
C 749 1728 896 1778 896 1954 
C 896 2112 774 2181 666 2181 
C 640 2181 608 2174 589 2168 
C 723 2592 1069 2714 1293 2714 
C 1613 2714 1965 2429 1965 1885 
L 1965 1600 
C 1587 1600 1133 1549 774 1357 
C 371 1133 256 813 256 570 
C 256 77 832 -64 1171 -64 
C 1523 -64 1850 139 1990 511 
C 2003 233 2182 -18 2464 -18 
C 2598 -18 2938 70 2938 567 
L 2938 920 
L 2822 920 
L 2822 562 
C 2822 178 2650 128 2566 128 
C 2304 128 2304 458 2304 738 
L 2304 1653 
z
M 1965 870 
C 1965 317 1568 38 1216 38 
C 896 38 646 275 646 570 
C 646 761 730 1100 1101 1305 
C 1408 1478 1760 1504 1965 1504 
L 1965 870 
z
" transform="scale(0.015625)"/>
       <path id="CMR17-6e" d="M 2656 1933 
C 2656 2259 2592 2790 1837 2790 
C 1331 2790 1069 2400 973 2144 
L 966 2144 
L 966 2790 
L 211 2720 
L 211 2554 
C 589 2554 646 2515 646 2208 
L 646 428 
C 646 184 621 153 211 153 
L 211 -13 
C 365 0 646 0 813 0 
C 979 0 1267 0 1421 -13 
L 1421 153 
C 1011 153 986 178 986 428 
L 986 1658 
C 986 2247 1344 2688 1792 2688 
C 2266 2688 2317 2266 2317 1958 
L 2317 428 
C 2317 184 2291 153 1882 153 
L 1882 -13 
C 2035 0 2317 0 2483 0 
C 2650 0 2938 0 3091 -13 
L 3091 153 
C 2682 153 2656 178 2656 428 
L 2656 1933 
z
" transform="scale(0.015625)"/>
       <path id="CMR17-73" d="M 1978 2697 
C 1978 2813 1971 2819 1933 2819 
C 1907 2819 1901 2813 1824 2717 
C 1805 2691 1747 2626 1728 2601 
C 1523 2819 1235 2819 1126 2819 
C 416 2819 160 2447 160 2076 
C 160 1498 813 1365 998 1325 
C 1402 1243 1542 1217 1677 1101 
C 1760 1025 1901 884 1901 654 
C 1901 384 1747 38 1158 38 
C 602 38 403 460 288 1021 
C 269 1110 269 1117 218 1117 
C 166 1117 160 1110 160 983 
L 160 63 
C 160 -51 166 -58 205 -58 
C 237 -58 243 -51 275 0 
C 314 57 410 211 448 276 
C 576 103 800 -64 1158 -64 
C 1792 -64 2131 283 2131 784 
C 2131 1112 1958 1285 1875 1362 
C 1683 1561 1459 1606 1190 1657 
C 838 1735 390 1825 390 2217 
C 390 2383 480 2737 1126 2737 
C 1811 2737 1850 2094 1862 1888 
C 1869 1856 1901 1849 1920 1849 
C 1978 1849 1978 1869 1978 1978 
L 1978 2697 
z
" transform="scale(0.015625)"/>
       <path id="CMR17-69" d="M 992 3909 
C 992 4049 877 4170 730 4170 
C 589 4170 467 4056 467 3909 
C 467 3769 582 3648 730 3648 
C 870 3648 992 3763 992 3909 
z
M 243 2706 
L 243 2541 
C 602 2541 653 2502 653 2197 
L 653 427 
C 653 184 627 153 218 153 
L 218 -13 
C 371 0 646 0 806 0 
C 960 0 1222 0 1370 -13 
L 1370 153 
C 992 153 979 191 979 420 
L 979 2776 
L 243 2706 
z
" transform="scale(0.015625)"/>
       <path id="CMR17-74" d="M 966 2560 
L 1862 2560 
L 1862 2725 
L 966 2725 
L 966 3904 
L 851 3904 
C 838 3245 614 2668 70 2668 
L 70 2560 
L 627 2560 
L 627 771 
C 627 650 627 -64 1370 -64 
C 1747 -64 1965 306 1965 777 
L 1965 1140 
L 1850 1140 
L 1850 783 
C 1850 344 1677 51 1408 51 
C 1222 51 966 178 966 758 
L 966 2560 
z
" transform="scale(0.015625)"/>
       <path id="CMR17-6f" d="M 2758 1356 
C 2758 2176 2163 2816 1466 2816 
C 768 2816 173 2176 173 1356 
C 173 551 768 -64 1466 -64 
C 2163 -64 2758 551 2758 1356 
z
M 1466 51 
C 1165 51 909 230 762 480 
C 602 767 582 1126 582 1408 
C 582 1677 595 2010 762 2298 
C 890 2509 1139 2714 1466 2714 
C 1754 2714 1997 2554 2150 2330 
C 2349 2029 2349 1607 2349 1408 
C 2349 1158 2336 775 2163 467 
C 1984 173 1709 51 1466 51 
z
" transform="scale(0.015625)"/>
       <path id="CMR17-53" d="M 2803 4290 
C 2803 4404 2797 4411 2758 4411 
C 2720 4411 2707 4385 2682 4328 
L 2490 3907 
C 2246 4257 1875 4416 1472 4416 
C 819 4416 294 3901 294 3253 
C 294 3056 339 2776 557 2510 
C 794 2218 1018 2167 1530 2033 
C 1722 1982 2042 1899 2106 1874 
C 2470 1722 2662 1341 2662 985 
C 2662 527 2336 38 1779 38 
C 1094 38 454 419 410 1311 
C 403 1413 397 1419 352 1419 
C 301 1419 294 1413 294 1285 
L 294 -1 
C 294 -115 301 -122 339 -122 
C 384 -122 397 -90 486 108 
C 493 127 493 140 614 381 
C 934 -39 1472 -128 1779 -128 
C 2477 -128 2970 451 2970 1124 
C 2970 1454 2848 1708 2778 1823 
C 2509 2230 2221 2306 1914 2382 
C 1869 2402 1856 2402 1498 2490 
C 1152 2579 1005 2624 845 2796 
C 666 2992 602 3196 602 3399 
C 602 3812 934 4263 1478 4263 
C 2157 4263 2579 3786 2675 2993 
C 2694 2878 2701 2872 2746 2872 
C 2803 2872 2803 2891 2803 2999 
L 2803 4290 
z
" transform="scale(0.015625)"/>
       <path id="CMR17-65" d="M 2438 1472 
C 2464 1498 2464 1511 2464 1576 
C 2464 2238 2118 2816 1389 2816 
C 710 2816 173 2169 173 1383 
C 173 551 781 -64 1459 -64 
C 2176 -64 2458 607 2458 740 
C 2458 784 2419 784 2406 784 
C 2362 784 2355 771 2330 696 
C 2189 265 1837 51 1504 51 
C 1229 51 954 203 781 480 
C 582 803 582 1176 582 1472 
L 2438 1472 
z
M 589 1568 
C 634 2505 1126 2714 1382 2714 
C 1818 2714 2112 2297 2118 1568 
L 589 1568 
z
" transform="scale(0.015625)"/>
       <path id="CMR17-76" d="M 2502 2163 
C 2560 2304 2662 2560 3034 2560 
L 3034 2726 
C 2912 2726 2752 2726 2630 2726 
C 2496 2726 2285 2726 2157 2732 
L 2157 2566 
C 2317 2553 2406 2477 2406 2311 
C 2406 2253 2406 2240 2368 2151 
L 1664 377 
L 902 2286 
C 864 2369 864 2381 864 2407 
C 864 2560 1075 2560 1171 2560 
L 1171 2732 
C 1018 2726 736 2726 576 2726 
C 403 2726 205 2726 64 2732 
L 64 2560 
C 307 2560 442 2560 518 2362 
L 1446 44 
C 1485 -51 1491 -64 1549 -64 
C 1606 -64 1613 -51 1651 44 
L 2502 2163 
z
" transform="scale(0.015625)"/>
       <path id="CMR17-79" d="M 2496 2197 
C 2656 2586 2944 2586 3034 2586 
L 3034 2752 
C 2912 2752 2752 2752 2630 2752 
C 2496 2752 2285 2752 2157 2758 
L 2157 2592 
C 2400 2573 2406 2394 2406 2343 
C 2406 2280 2394 2248 2362 2171 
L 1664 449 
L 902 2306 
C 870 2382 870 2426 870 2433 
C 870 2573 1018 2586 1171 2586 
L 1171 2758 
C 1018 2752 742 2752 582 2752 
C 410 2752 205 2752 64 2758 
L 64 2586 
C 410 2586 448 2554 531 2350 
L 1485 15 
C 1197 -738 1030 -1178 627 -1178 
C 557 -1178 397 -1159 282 -1044 
C 429 -1031 493 -942 493 -833 
C 493 -725 416 -629 288 -629 
C 147 -629 77 -725 77 -840 
C 77 -1095 339 -1280 627 -1280 
C 998 -1280 1229 -922 1357 -604 
L 2496 2197 
z
" transform="scale(0.015625)"/>
       <path id="CMR17-2f" d="M 2605 4545 
C 2637 4627 2637 4640 2637 4653 
C 2637 4729 2579 4768 2528 4768 
C 2451 4768 2426 4717 2400 4640 
L 326 -1377 
C 294 -1460 294 -1473 294 -1486 
C 294 -1562 352 -1600 403 -1600 
C 480 -1600 506 -1549 531 -1473 
L 2605 4545 
z
" transform="scale(0.015625)"/>
       <path id="CMR17-4d" d="M 1338 4224 
C 1299 4320 1293 4320 1158 4320 
L 339 4320 
L 339 4160 
C 781 4160 851 4160 851 3875 
L 851 610 
C 851 451 851 153 339 153 
L 339 -13 
C 486 0 755 0 915 0 
C 1075 0 1344 0 1491 -13 
L 1491 153 
C 979 153 979 451 979 610 
L 979 4135 
L 986 4135 
L 2490 89 
C 2515 25 2528 -13 2579 -13 
C 2630 -13 2643 25 2669 89 
L 4186 4166 
L 4192 4166 
L 4192 438 
C 4192 153 4122 153 3680 153 
L 3680 -13 
C 3853 0 4198 0 4384 0 
C 4570 0 4922 0 5094 -13 
L 5094 153 
C 4653 153 4582 153 4582 438 
L 4582 3875 
C 4582 4160 4653 4160 5094 4160 
L 5094 4320 
L 4282 4320 
C 4147 4320 4141 4314 4102 4218 
L 2720 502 
L 1338 4224 
z
" transform="scale(0.015625)"/>
       <path id="CMR17-48" d="M 3590 3905 
C 3590 4192 3661 4192 4102 4192 
L 4102 4352 
C 3917 4352 3578 4352 3379 4352 
C 3181 4352 2842 4352 2656 4352 
L 2656 4192 
C 3098 4192 3168 4192 3168 3904 
L 3168 2341 
L 1261 2341 
L 1261 3904 
C 1261 4192 1331 4192 1773 4192 
L 1773 4352 
C 1587 4352 1248 4352 1050 4352 
C 851 4352 512 4352 326 4352 
L 326 4192 
C 768 4192 838 4192 838 3905 
L 838 447 
C 838 160 768 160 326 160 
L 326 0 
C 512 0 851 0 1050 0 
C 1248 0 1587 0 1773 0 
L 1773 160 
C 1331 160 1261 160 1261 446 
L 1261 2176 
L 3168 2176 
L 3168 446 
C 3168 160 3098 160 2656 160 
L 2656 0 
C 2842 0 3181 0 3379 0 
C 3578 0 3917 0 4102 0 
L 4102 160 
C 3661 160 3590 160 3590 447 
L 3590 3905 
z
" transform="scale(0.015625)"/>
       <path id="CMR17-7a" d="M 2310 2605 
C 2362 2670 2362 2682 2362 2695 
C 2362 2752 2336 2752 2221 2752 
L 275 2752 
L 211 1760 
L 326 1760 
C 371 2381 442 2650 1178 2650 
L 1958 2650 
L 128 96 
C 128 0 134 0 269 0 
L 2291 0 
L 2381 1152 
L 2266 1152 
C 2214 442 2131 115 1350 115 
L 531 115 
L 2310 2605 
z
" transform="scale(0.015625)"/>
       <path id="CMR17-47" d="M 3974 1233 
C 3974 1473 3994 1505 4390 1505 
L 4390 1670 
C 4237 1664 3891 1664 3718 1664 
C 3539 1664 3040 1664 2797 1664 
L 2797 1505 
L 2989 1505 
C 3539 1505 3552 1434 3552 1201 
L 3552 774 
C 3552 63 2720 63 2522 63 
C 1862 63 781 511 781 2160 
C 781 3808 1843 4250 2464 4250 
C 3187 4250 3712 3626 3834 2741 
C 3846 2664 3846 2651 3904 2651 
C 3974 2651 3974 2664 3974 2779 
L 3974 4288 
C 3974 4402 3968 4409 3930 4409 
C 3904 4409 3898 4402 3853 4326 
L 3571 3791 
C 3258 4187 2874 4416 2381 4416 
C 1286 4416 294 3456 294 2148 
C 294 845 1267 -128 2394 -128 
C 2912 -128 3418 56 3616 417 
C 3725 158 3904 -20 3936 -20 
C 3968 -20 3974 -13 3974 100 
L 3974 1233 
z
" transform="scale(0.015625)"/>
      </defs>
      <use xlink:href="#CMR17-54" transform="scale(0.996264)"/>
      <use xlink:href="#CMR17-72" transform="translate(58.702625 0) scale(0.996264)"/>
      <use xlink:href="#CMR17-61" transform="translate(93.983393 0) scale(0.996264)"/>
      <use xlink:href="#CMR17-6e" transform="translate(139.67387 0) scale(0.996264)"/>
      <use xlink:href="#CMR17-73" transform="translate(190.56924 0) scale(0.996264)"/>
      <use xlink:href="#CMR17-69" transform="translate(226.370577 0) scale(0.996264)"/>
      <use xlink:href="#CMR17-74" transform="translate(251.241636 0) scale(0.996264)"/>
      <use xlink:href="#CMR17-69" transform="translate(286.522404 0) scale(0.996264)"/>
      <use xlink:href="#CMR17-6f" transform="translate(311.393462 0) scale(0.996264)"/>
      <use xlink:href="#CMR17-6e" transform="translate(357.083939 0) scale(0.996264)"/>
      <use xlink:href="#CMR17-53" transform="translate(438.055276 0) scale(0.996264)"/>
      <use xlink:href="#CMR17-65" transform="translate(488.950645 0) scale(0.996264)"/>
      <use xlink:href="#CMR17-6e" transform="translate(529.436306 0) scale(0.996264)"/>
      <use xlink:href="#CMR17-73" transform="translate(580.331676 0) scale(0.996264)"/>
      <use xlink:href="#CMR17-69" transform="translate(616.133013 0) scale(0.996264)"/>
      <use xlink:href="#CMR17-74" transform="translate(641.004072 0) scale(0.996264)"/>
      <use xlink:href="#CMR17-69" transform="translate(676.284839 0) scale(0.996264)"/>
      <use xlink:href="#CMR17-76" transform="translate(701.155898 0) scale(0.996264)"/>
      <use xlink:href="#CMR17-69" transform="translate(749.448814 0) scale(0.996264)"/>
      <use xlink:href="#CMR17-74" transform="translate(774.319872 0) scale(0.996264)"/>
      <use xlink:href="#CMR17-79" transform="translate(806.998186 0) scale(0.996264)"/>
      <use xlink:href="#CMR17-2f" transform="translate(885.367068 0) scale(0.996264)"/>
      <use xlink:href="#CMR17-4d" transform="translate(961.133512 0) scale(0.996264)"/>
      <use xlink:href="#CMR17-48" transform="translate(1045.820452 0) scale(0.996264)"/>
      <use xlink:href="#CMR17-7a" transform="translate(1114.892882 0) scale(0.996264)"/>
      <use xlink:href="#CMR17-2f" transform="translate(1155.378543 0) scale(0.996264)"/>
      <use xlink:href="#CMR17-47" transform="translate(1201.06902 0) scale(0.996264)"/>
     </g>
    </g>
   </g>
   <g id="matplotlib.axis_2">
    <g id="ytick_1">
     <g id="line2d_19">
      <path d="M 107.098381 399.029399 
L 771.108344 399.029399 
" clip-path="url(#p7db75ebc10)" style="fill: none; stroke: #b0b0b0; stroke-width: 0.8; stroke-linecap: square"/>
     </g>
     <g id="line2d_20">
      <defs>
       <path id="m43311a854c" d="M 0 0 
L -3.5 0 
" style="stroke: #000000; stroke-width: 0.8"/>
      </defs>
      <g>
       <use xlink:href="#m43311a854c" x="107.098381" y="399.029399" style="stroke: #000000; stroke-width: 0.8"/>
      </g>
     </g>
     <g id="text_11">
      <!-- $\mathdefault{0.05}$ -->
      <g transform="translate(82.386967 402.488649) scale(0.1 -0.1)">
       <use xlink:href="#CMR17-30" transform="scale(0.996264)"/>
       <use xlink:href="#CMMI12-3a" transform="translate(45.690477 0) scale(0.996264)"/>
       <use xlink:href="#CMR17-30" transform="translate(72.787654 0) scale(0.996264)"/>
       <use xlink:href="#CMR17-35" transform="translate(118.478131 0) scale(0.996264)"/>
      </g>
     </g>
    </g>
    <g id="ytick_2">
     <g id="line2d_21">
      <path d="M 107.098381 322.113249 
L 771.108344 322.113249 
" clip-path="url(#p7db75ebc10)" style="fill: none; stroke: #b0b0b0; stroke-width: 0.8; stroke-linecap: square"/>
     </g>
     <g id="line2d_22">
      <g>
       <use xlink:href="#m43311a854c" x="107.098381" y="322.113249" style="stroke: #000000; stroke-width: 0.8"/>
      </g>
     </g>
     <g id="text_12">
      <!-- $\mathdefault{0.10}$ -->
      <g transform="translate(82.386967 325.572499) scale(0.1 -0.1)">
       <use xlink:href="#CMR17-30" transform="scale(0.996264)"/>
       <use xlink:href="#CMMI12-3a" transform="translate(45.690477 0) scale(0.996264)"/>
       <use xlink:href="#CMR17-31" transform="translate(72.787654 0) scale(0.996264)"/>
       <use xlink:href="#CMR17-30" transform="translate(118.478131 0) scale(0.996264)"/>
      </g>
     </g>
    </g>
    <g id="ytick_3">
     <g id="line2d_23">
      <path d="M 107.098381 245.1971 
L 771.108344 245.1971 
" clip-path="url(#p7db75ebc10)" style="fill: none; stroke: #b0b0b0; stroke-width: 0.8; stroke-linecap: square"/>
     </g>
     <g id="line2d_24">
      <g>
       <use xlink:href="#m43311a854c" x="107.098381" y="245.1971" style="stroke: #000000; stroke-width: 0.8"/>
      </g>
     </g>
     <g id="text_13">
      <!-- $\mathdefault{0.15}$ -->
      <g transform="translate(82.386967 248.656349) scale(0.1 -0.1)">
       <use xlink:href="#CMR17-30" transform="scale(0.996264)"/>
       <use xlink:href="#CMMI12-3a" transform="translate(45.690477 0) scale(0.996264)"/>
       <use xlink:href="#CMR17-31" transform="translate(72.787654 0) scale(0.996264)"/>
       <use xlink:href="#CMR17-35" transform="translate(118.478131 0) scale(0.996264)"/>
      </g>
     </g>
    </g>
    <g id="ytick_4">
     <g id="line2d_25">
      <path d="M 107.098381 168.28095 
L 771.108344 168.28095 
" clip-path="url(#p7db75ebc10)" style="fill: none; stroke: #b0b0b0; stroke-width: 0.8; stroke-linecap: square"/>
     </g>
     <g id="line2d_26">
      <g>
       <use xlink:href="#m43311a854c" x="107.098381" y="168.28095" style="stroke: #000000; stroke-width: 0.8"/>
      </g>
     </g>
     <g id="text_14">
      <!-- $\mathdefault{0.20}$ -->
      <g transform="translate(82.386967 171.740199) scale(0.1 -0.1)">
       <use xlink:href="#CMR17-30" transform="scale(0.996264)"/>
       <use xlink:href="#CMMI12-3a" transform="translate(45.690477 0) scale(0.996264)"/>
       <use xlink:href="#CMR17-32" transform="translate(72.787654 0) scale(0.996264)"/>
       <use xlink:href="#CMR17-30" transform="translate(118.478131 0) scale(0.996264)"/>
      </g>
     </g>
    </g>
    <g id="ytick_5">
     <g id="line2d_27">
      <path d="M 107.098381 91.3648 
L 771.108344 91.3648 
" clip-path="url(#p7db75ebc10)" style="fill: none; stroke: #b0b0b0; stroke-width: 0.8; stroke-linecap: square"/>
     </g>
     <g id="line2d_28">
      <g>
       <use xlink:href="#m43311a854c" x="107.098381" y="91.3648" style="stroke: #000000; stroke-width: 0.8"/>
      </g>
     </g>
     <g id="text_15">
      <!-- $\mathdefault{0.25}$ -->
      <g transform="translate(82.386967 94.824049) scale(0.1 -0.1)">
       <use xlink:href="#CMR17-30" transform="scale(0.996264)"/>
       <use xlink:href="#CMMI12-3a" transform="translate(45.690477 0) scale(0.996264)"/>
       <use xlink:href="#CMR17-32" transform="translate(72.787654 0) scale(0.996264)"/>
       <use xlink:href="#CMR17-35" transform="translate(118.478131 0) scale(0.996264)"/>
      </g>
     </g>
    </g>
    <g id="text_16">
     <!-- Discrepancy / kHz -->
     <g transform="translate(75.647241 312.280112) rotate(-90) scale(0.11 -0.11)">
      <defs>
       <path id="CMR17-44" d="M 333 4352 
L 333 4186 
C 774 4186 845 4186 845 3900 
L 845 452 
C 845 166 774 166 333 166 
L 333 0 
L 2368 0 
C 3398 0 4224 943 4224 2141 
C 4224 3346 3411 4352 2368 4352 
L 333 4352 
z
M 1523 166 
C 1267 166 1254 197 1254 414 
L 1254 3938 
C 1254 4155 1267 4186 1523 4186 
L 2240 4186 
C 2771 4186 3750 3874 3750 2141 
C 3750 1242 3488 879 3366 707 
C 3213 510 2848 166 2240 166 
L 1523 166 
z
" transform="scale(0.015625)"/>
       <path id="CMR17-63" d="M 2234 2240 
C 2112 2240 1933 2240 1933 2017 
C 1933 1838 2080 1787 2163 1787 
C 2208 1787 2394 1807 2394 2024 
C 2394 2467 1958 2803 1466 2803 
C 787 2803 211 2178 211 1363 
C 211 516 813 -64 1466 -64 
C 2259 -64 2458 677 2458 748 
C 2458 774 2451 793 2406 793 
C 2362 793 2355 787 2330 703 
C 2163 180 1798 51 1523 51 
C 1114 51 621 427 621 1369 
C 621 2338 1094 2688 1472 2688 
C 1722 2688 2093 2573 2234 2240 
z
" transform="scale(0.015625)"/>
       <path id="CMR17-70" d="M 1408 -1063 
C 998 -1063 973 -1037 973 -789 
L 973 402 
C 1158 134 1427 -38 1766 -38 
C 2406 -38 3053 523 3053 1388 
C 3053 2191 2496 2802 1837 2802 
C 1453 2802 1139 2592 960 2338 
L 960 2802 
L 198 2732 
L 198 2567 
C 576 2567 634 2528 634 2223 
L 634 -789 
C 634 -1031 608 -1063 198 -1063 
L 198 -1228 
C 352 -1216 634 -1216 800 -1216 
C 966 -1216 1254 -1216 1408 -1228 
L 1408 -1063 
z
M 973 2012 
C 973 2102 973 2235 1222 2471 
C 1254 2497 1472 2688 1792 2688 
C 2259 2688 2643 2108 2643 1382 
C 2643 656 2234 64 1728 64 
C 1498 64 1248 172 1056 472 
C 973 612 973 650 973 752 
L 973 2012 
z
" transform="scale(0.015625)"/>
       <path id="CMR17-6b" d="M 1670 1673 
C 1664 1686 1632 1724 1632 1743 
C 1632 1756 2086 2171 2144 2222 
C 2509 2528 2739 2560 2906 2560 
L 2906 2733 
C 2867 2733 2854 2733 2848 2720 
L 2534 2720 
C 2355 2720 2080 2720 1907 2733 
L 1907 2566 
C 1997 2559 2061 2508 2061 2419 
C 2061 2291 1933 2170 1926 2170 
L 960 1289 
L 960 4396 
L 198 4326 
L 198 4160 
C 576 4160 634 4122 634 3817 
L 634 426 
C 634 184 608 153 198 153 
L 198 -13 
C 352 0 634 0 794 0 
C 954 0 1235 0 1389 -13 
L 1389 153 
C 979 153 954 178 954 428 
L 954 1130 
L 1395 1532 
L 2042 574 
C 2118 459 2182 369 2182 286 
C 2182 172 2067 153 1990 153 
L 1990 -13 
C 2144 0 2419 0 2579 0 
C 2694 0 2931 0 3040 0 
L 3040 153 
C 2739 153 2669 210 2477 491 
L 1670 1673 
z
" transform="scale(0.015625)"/>
      </defs>
      <use xlink:href="#CMR17-44" transform="scale(0.996264)"/>
      <use xlink:href="#CMR17-69" transform="translate(70.393556 0) scale(0.996264)"/>
      <use xlink:href="#CMR17-73" transform="translate(95.264614 0) scale(0.996264)"/>
      <use xlink:href="#CMR17-63" transform="translate(131.065952 0) scale(0.996264)"/>
      <use xlink:href="#CMR17-72" transform="translate(171.551612 0) scale(0.996264)"/>
      <use xlink:href="#CMR17-65" transform="translate(206.83238 0) scale(0.996264)"/>
      <use xlink:href="#CMR17-70" transform="translate(247.318041 0) scale(0.996264)"/>
      <use xlink:href="#CMR17-61" transform="translate(298.213411 0) scale(0.996264)"/>
      <use xlink:href="#CMR17-6e" transform="translate(343.903888 0) scale(0.996264)"/>
      <use xlink:href="#CMR17-63" transform="translate(394.799257 0) scale(0.996264)"/>
      <use xlink:href="#CMR17-79" transform="translate(435.284918 0) scale(0.996264)"/>
      <use xlink:href="#CMR17-2f" transform="translate(513.6538 0) scale(0.996264)"/>
      <use xlink:href="#CMR17-6b" transform="translate(589.420244 0) scale(0.996264)"/>
      <use xlink:href="#CMR17-48" transform="translate(637.713159 0) scale(0.996264)"/>
      <use xlink:href="#CMR17-7a" transform="translate(706.785589 0) scale(0.996264)"/>
     </g>
    </g>
   </g>
   <g id="patch_3">
    <path d="M 107.098381 471.27593 
L 107.098381 63.542822 
" style="fill: none; stroke: #000000; stroke-width: 0.8; stroke-linejoin: miter; stroke-linecap: square"/>
   </g>
   <g id="patch_4">
    <path d="M 771.108344 471.27593 
L 771.108344 63.542822 
" style="fill: none; stroke: #000000; stroke-width: 0.8; stroke-linejoin: miter; stroke-linecap: square"/>
   </g>
   <g id="patch_5">
    <path d="M 107.098381 471.27593 
L 771.108344 471.27593 
" style="fill: none; stroke: #000000; stroke-width: 0.8; stroke-linejoin: miter; stroke-linecap: square"/>
   </g>
   <g id="patch_6">
    <path d="M 107.098381 63.542822 
L 771.108344 63.542822 
" style="fill: none; stroke: #000000; stroke-width: 0.8; stroke-linejoin: miter; stroke-linecap: square"/>
   </g>
   <g id="text_17">
    <!-- (-1, 1, 1) -->
    <g transform="translate(708.464004 276.024088) scale(0.08 -0.08)">
     <defs>
      <path id="CMR17-28" d="M 1958 -1561 
C 1958 -1555 1958 -1542 1939 -1523 
C 1645 -1224 858 -407 858 1581 
C 858 3569 1632 4379 1946 4697 
C 1946 4704 1958 4717 1958 4736 
C 1958 4755 1939 4768 1914 4768 
C 1843 4768 1299 4296 986 3594 
C 666 2887 576 2199 576 1588 
C 576 1128 621 351 1005 -471 
C 1312 -1135 1837 -1600 1914 -1600 
C 1946 -1600 1958 -1587 1958 -1561 
z
" transform="scale(0.015625)"/>
      <path id="CMR17-2d" d="M 1632 1216 
L 1632 1496 
L 26 1496 
L 26 1216 
L 1632 1216 
z
" transform="scale(0.015625)"/>
      <path id="CMR17-2c" d="M 1011 102 
C 1024 45 1024 25 1024 -77 
C 1024 -463 896 -817 627 -1139 
C 595 -1170 595 -1183 595 -1197 
C 595 -1222 621 -1248 646 -1248 
C 685 -1248 1126 -799 1126 -87 
C 1126 124 1101 522 800 522 
C 659 522 538 427 538 261 
C 538 96 659 0 800 0 
C 877 0 960 32 1011 102 
z
" transform="scale(0.015625)"/>
      <path id="CMR17-29" d="M 1683 1581 
C 1683 2040 1638 2817 1254 3639 
C 947 4303 422 4768 346 4768 
C 326 4768 301 4761 301 4729 
C 301 4717 307 4710 314 4697 
C 621 4378 1402 3568 1402 1584 
C 1402 -407 627 -1217 314 -1537 
C 307 -1549 301 -1556 301 -1568 
C 301 -1600 326 -1600 346 -1600 
C 416 -1600 960 -1128 1274 -426 
C 1594 281 1683 969 1683 1581 
z
" transform="scale(0.015625)"/>
     </defs>
     <use xlink:href="#CMR17-28" transform="scale(0.996264)"/>
     <use xlink:href="#CMR17-2d" transform="translate(35.280768 0) scale(0.996264)"/>
     <use xlink:href="#CMR17-31" transform="translate(65.356734 0) scale(0.996264)"/>
     <use xlink:href="#CMR17-2c" transform="translate(111.047211 0) scale(0.996264)"/>
     <use xlink:href="#CMR17-31" transform="translate(165.994236 0) scale(0.996264)"/>
     <use xlink:href="#CMR17-2c" transform="translate(211.684713 0) scale(0.996264)"/>
     <use xlink:href="#CMR17-31" transform="translate(266.631738 0) scale(0.996264)"/>
     <use xlink:href="#CMR17-29" transform="translate(312.322215 0) scale(0.996264)"/>
    </g>
   </g>
   <g id="text_18">
    <!-- (0, 1, 1) -->
    <g transform="translate(599.055237 350.372625) scale(0.08 -0.08)">
     <use xlink:href="#CMR17-28" transform="scale(0.996264)"/>
     <use xlink:href="#CMR17-30" transform="translate(35.280768 0) scale(0.996264)"/>
     <use xlink:href="#CMR17-2c" transform="translate(80.971245 0) scale(0.996264)"/>
     <use xlink:href="#CMR17-31" transform="translate(135.91827 0) scale(0.996264)"/>
     <use xlink:href="#CMR17-2c" transform="translate(181.608747 0) scale(0.996264)"/>
     <use xlink:href="#CMR17-31" transform="translate(236.555772 0) scale(0.996264)"/>
     <use xlink:href="#CMR17-29" transform="translate(282.246249 0) scale(0.996264)"/>
    </g>
   </g>
   <g id="text_19">
    <!-- (1, 1, 1) -->
    <g transform="translate(486.988148 304.840296) scale(0.08 -0.08)">
     <use xlink:href="#CMR17-28" transform="scale(0.996264)"/>
     <use xlink:href="#CMR17-31" transform="translate(35.280768 0) scale(0.996264)"/>
     <use xlink:href="#CMR17-2c" transform="translate(80.971245 0) scale(0.996264)"/>
     <use xlink:href="#CMR17-31" transform="translate(135.91827 0) scale(0.996264)"/>
     <use xlink:href="#CMR17-2c" transform="translate(181.608747 0) scale(0.996264)"/>
     <use xlink:href="#CMR17-31" transform="translate(236.555772 0) scale(0.996264)"/>
     <use xlink:href="#CMR17-29" transform="translate(282.246249 0) scale(0.996264)"/>
    </g>
   </g>
   <g id="text_20">
    <!-- (-2, 1, 0) -->
    <g transform="translate(368.653754 293.897871) scale(0.08 -0.08)">
     <use xlink:href="#CMR17-28" transform="scale(0.996264)"/>
     <use xlink:href="#CMR17-2d" transform="translate(35.280768 0) scale(0.996264)"/>
     <use xlink:href="#CMR17-32" transform="translate(65.356734 0) scale(0.996264)"/>
     <use xlink:href="#CMR17-2c" transform="translate(111.047211 0) scale(0.996264)"/>
     <use xlink:href="#CMR17-31" transform="translate(165.994236 0) scale(0.996264)"/>
     <use xlink:href="#CMR17-2c" transform="translate(211.684713 0) scale(0.996264)"/>
     <use xlink:href="#CMR17-30" transform="translate(266.631738 0) scale(0.996264)"/>
     <use xlink:href="#CMR17-29" transform="translate(312.322215 0) scale(0.996264)"/>
    </g>
   </g>
   <g id="text_21">
    <!-- (2, 1, 0) -->
    <g transform="translate(261.326915 448.699447) scale(0.08 -0.08)">
     <use xlink:href="#CMR17-28" transform="scale(0.996264)"/>
     <use xlink:href="#CMR17-32" transform="translate(35.280768 0) scale(0.996264)"/>
     <use xlink:href="#CMR17-2c" transform="translate(80.971245 0) scale(0.996264)"/>
     <use xlink:href="#CMR17-31" transform="translate(135.91827 0) scale(0.996264)"/>
     <use xlink:href="#CMR17-2c" transform="translate(181.608747 0) scale(0.996264)"/>
     <use xlink:href="#CMR17-30" transform="translate(236.555772 0) scale(0.996264)"/>
     <use xlink:href="#CMR17-29" transform="translate(282.246249 0) scale(0.996264)"/>
    </g>
   </g>
   <g id="text_22">
    <!-- (-2, 1, -1) -->
    <g transform="translate(285.401589 364.783948) scale(0.08 -0.08)">
     <use xlink:href="#CMR17-28" transform="scale(0.996264)"/>
     <use xlink:href="#CMR17-2d" transform="translate(35.280768 0) scale(0.996264)"/>
     <use xlink:href="#CMR17-32" transform="translate(65.356734 0) scale(0.996264)"/>
     <use xlink:href="#CMR17-2c" transform="translate(111.047211 0) scale(0.996264)"/>
     <use xlink:href="#CMR17-31" transform="translate(165.994236 0) scale(0.996264)"/>
     <use xlink:href="#CMR17-2c" transform="translate(211.684713 0) scale(0.996264)"/>
     <use xlink:href="#CMR17-2d" transform="translate(266.631738 0) scale(0.996264)"/>
     <use xlink:href="#CMR17-31" transform="translate(296.707704 0) scale(0.996264)"/>
     <use xlink:href="#CMR17-29" transform="translate(342.398182 0) scale(0.996264)"/>
    </g>
   </g>
   <g id="text_23">
    <!-- (-1, 1, -1) -->
    <g transform="translate(397.798155 375.178385) scale(0.08 -0.08)">
     <use xlink:href="#CMR17-28" transform="scale(0.996264)"/>
     <use xlink:href="#CMR17-2d" transform="translate(35.280768 0) scale(0.996264)"/>
     <use xlink:href="#CMR17-31" transform="translate(65.356734 0) scale(0.996264)"/>
     <use xlink:href="#CMR17-2c" transform="translate(111.047211 0) scale(0.996264)"/>
     <use xlink:href="#CMR17-31" transform="translate(165.994236 0) scale(0.996264)"/>
     <use xlink:href="#CMR17-2c" transform="translate(211.684713 0) scale(0.996264)"/>
     <use xlink:href="#CMR17-2d" transform="translate(266.631738 0) scale(0.996264)"/>
     <use xlink:href="#CMR17-31" transform="translate(296.707704 0) scale(0.996264)"/>
     <use xlink:href="#CMR17-29" transform="translate(342.398182 0) scale(0.996264)"/>
    </g>
   </g>
   <g id="text_24">
    <!-- (0, 2, 2) -->
    <g transform="translate(613.206369 211.308988) scale(0.08 -0.08)">
     <use xlink:href="#CMR17-28" transform="scale(0.996264)"/>
     <use xlink:href="#CMR17-30" transform="translate(35.280768 0) scale(0.996264)"/>
     <use xlink:href="#CMR17-2c" transform="translate(80.971245 0) scale(0.996264)"/>
     <use xlink:href="#CMR17-32" transform="translate(135.91827 0) scale(0.996264)"/>
     <use xlink:href="#CMR17-2c" transform="translate(181.608747 0) scale(0.996264)"/>
     <use xlink:href="#CMR17-32" transform="translate(236.555772 0) scale(0.996264)"/>
     <use xlink:href="#CMR17-29" transform="translate(282.246249 0) scale(0.996264)"/>
    </g>
   </g>
   <g id="text_25">
    <!-- (1, 2, 2) -->
    <g transform="translate(501.13928 290.123043) scale(0.08 -0.08)">
     <use xlink:href="#CMR17-28" transform="scale(0.996264)"/>
     <use xlink:href="#CMR17-31" transform="translate(35.280768 0) scale(0.996264)"/>
     <use xlink:href="#CMR17-2c" transform="translate(80.971245 0) scale(0.996264)"/>
     <use xlink:href="#CMR17-32" transform="translate(135.91827 0) scale(0.996264)"/>
     <use xlink:href="#CMR17-2c" transform="translate(181.608747 0) scale(0.996264)"/>
     <use xlink:href="#CMR17-32" transform="translate(236.555772 0) scale(0.996264)"/>
     <use xlink:href="#CMR17-29" transform="translate(282.246249 0) scale(0.996264)"/>
    </g>
   </g>
   <g id="text_26">
    <!-- (2, 2, 2) -->
    <g transform="translate(389.236115 360.684517) scale(0.08 -0.08)">
     <use xlink:href="#CMR17-28" transform="scale(0.996264)"/>
     <use xlink:href="#CMR17-32" transform="translate(35.280768 0) scale(0.996264)"/>
     <use xlink:href="#CMR17-2c" transform="translate(80.971245 0) scale(0.996264)"/>
     <use xlink:href="#CMR17-32" transform="translate(135.91827 0) scale(0.996264)"/>
     <use xlink:href="#CMR17-2c" transform="translate(181.608747 0) scale(0.996264)"/>
     <use xlink:href="#CMR17-32" transform="translate(236.555772 0) scale(0.996264)"/>
     <use xlink:href="#CMR17-29" transform="translate(282.246249 0) scale(0.996264)"/>
    </g>
   </g>
   <g id="text_27">
    <!-- (2, 2, 1) -->
    <g transform="translate(124.79527 372.591112) scale(0.08 -0.08)">
     <use xlink:href="#CMR17-28" transform="scale(0.996264)"/>
     <use xlink:href="#CMR17-32" transform="translate(35.280768 0) scale(0.996264)"/>
     <use xlink:href="#CMR17-2c" transform="translate(80.971245 0) scale(0.996264)"/>
     <use xlink:href="#CMR17-32" transform="translate(135.91827 0) scale(0.996264)"/>
     <use xlink:href="#CMR17-2c" transform="translate(181.608747 0) scale(0.996264)"/>
     <use xlink:href="#CMR17-31" transform="translate(236.555772 0) scale(0.996264)"/>
     <use xlink:href="#CMR17-29" transform="translate(282.246249 0) scale(0.996264)"/>
    </g>
   </g>
   <g id="text_28">
    <!-- (-2, 2, 0) -->
    <g transform="translate(313.91495 339.173799) scale(0.08 -0.08)">
     <use xlink:href="#CMR17-28" transform="scale(0.996264)"/>
     <use xlink:href="#CMR17-2d" transform="translate(35.280768 0) scale(0.996264)"/>
     <use xlink:href="#CMR17-32" transform="translate(65.356734 0) scale(0.996264)"/>
     <use xlink:href="#CMR17-2c" transform="translate(111.047211 0) scale(0.996264)"/>
     <use xlink:href="#CMR17-32" transform="translate(165.994236 0) scale(0.996264)"/>
     <use xlink:href="#CMR17-2c" transform="translate(211.684713 0) scale(0.996264)"/>
     <use xlink:href="#CMR17-30" transform="translate(266.631738 0) scale(0.996264)"/>
     <use xlink:href="#CMR17-29" transform="translate(312.322215 0) scale(0.996264)"/>
    </g>
   </g>
   <g id="text_29">
    <!-- (-1, 2, 0) -->
    <g transform="translate(201.518385 344.434017) scale(0.08 -0.08)">
     <use xlink:href="#CMR17-28" transform="scale(0.996264)"/>
     <use xlink:href="#CMR17-2d" transform="translate(35.280768 0) scale(0.996264)"/>
     <use xlink:href="#CMR17-31" transform="translate(65.356734 0) scale(0.996264)"/>
     <use xlink:href="#CMR17-2c" transform="translate(111.047211 0) scale(0.996264)"/>
     <use xlink:href="#CMR17-32" transform="translate(165.994236 0) scale(0.996264)"/>
     <use xlink:href="#CMR17-2c" transform="translate(211.684713 0) scale(0.996264)"/>
     <use xlink:href="#CMR17-30" transform="translate(266.631738 0) scale(0.996264)"/>
     <use xlink:href="#CMR17-29" transform="translate(312.322215 0) scale(0.996264)"/>
    </g>
   </g>
   <g id="text_30">
    <!-- (2, 2, 0) -->
    <g transform="translate(316.065719 293.359947) scale(0.08 -0.08)">
     <use xlink:href="#CMR17-28" transform="scale(0.996264)"/>
     <use xlink:href="#CMR17-32" transform="translate(35.280768 0) scale(0.996264)"/>
     <use xlink:href="#CMR17-2c" transform="translate(80.971245 0) scale(0.996264)"/>
     <use xlink:href="#CMR17-32" transform="translate(135.91827 0) scale(0.996264)"/>
     <use xlink:href="#CMR17-2c" transform="translate(181.608747 0) scale(0.996264)"/>
     <use xlink:href="#CMR17-30" transform="translate(236.555772 0) scale(0.996264)"/>
     <use xlink:href="#CMR17-29" transform="translate(282.246249 0) scale(0.996264)"/>
    </g>
   </g>
   <g id="text_31">
    <!-- (-2, 2, -1) -->
    <g transform="translate(104.697055 359.563771) scale(0.08 -0.08)">
     <use xlink:href="#CMR17-28" transform="scale(0.996264)"/>
     <use xlink:href="#CMR17-2d" transform="translate(35.280768 0) scale(0.996264)"/>
     <use xlink:href="#CMR17-32" transform="translate(65.356734 0) scale(0.996264)"/>
     <use xlink:href="#CMR17-2c" transform="translate(111.047211 0) scale(0.996264)"/>
     <use xlink:href="#CMR17-32" transform="translate(165.994236 0) scale(0.996264)"/>
     <use xlink:href="#CMR17-2c" transform="translate(211.684713 0) scale(0.996264)"/>
     <use xlink:href="#CMR17-2d" transform="translate(266.631738 0) scale(0.996264)"/>
     <use xlink:href="#CMR17-31" transform="translate(296.707704 0) scale(0.996264)"/>
     <use xlink:href="#CMR17-29" transform="translate(342.398182 0) scale(0.996264)"/>
    </g>
   </g>
   <g id="text_32">
    <!-- (1, 2, -1) -->
    <g transform="translate(444.215054 445.366338) scale(0.08 -0.08)">
     <use xlink:href="#CMR17-28" transform="scale(0.996264)"/>
     <use xlink:href="#CMR17-31" transform="translate(35.280768 0) scale(0.996264)"/>
     <use xlink:href="#CMR17-2c" transform="translate(80.971245 0) scale(0.996264)"/>
     <use xlink:href="#CMR17-32" transform="translate(135.91827 0) scale(0.996264)"/>
     <use xlink:href="#CMR17-2c" transform="translate(181.608747 0) scale(0.996264)"/>
     <use xlink:href="#CMR17-2d" transform="translate(236.555772 0) scale(0.996264)"/>
     <use xlink:href="#CMR17-31" transform="translate(266.631738 0) scale(0.996264)"/>
     <use xlink:href="#CMR17-29" transform="translate(312.322215 0) scale(0.996264)"/>
    </g>
   </g>
   <g id="text_33">
    <!-- (-2, 2, -2) -->
    <g transform="translate(322.087157 319.938867) scale(0.08 -0.08)">
     <use xlink:href="#CMR17-28" transform="scale(0.996264)"/>
     <use xlink:href="#CMR17-2d" transform="translate(35.280768 0) scale(0.996264)"/>
     <use xlink:href="#CMR17-32" transform="translate(65.356734 0) scale(0.996264)"/>
     <use xlink:href="#CMR17-2c" transform="translate(111.047211 0) scale(0.996264)"/>
     <use xlink:href="#CMR17-32" transform="translate(165.994236 0) scale(0.996264)"/>
     <use xlink:href="#CMR17-2c" transform="translate(211.684713 0) scale(0.996264)"/>
     <use xlink:href="#CMR17-2d" transform="translate(266.631738 0) scale(0.996264)"/>
     <use xlink:href="#CMR17-32" transform="translate(296.707704 0) scale(0.996264)"/>
     <use xlink:href="#CMR17-29" transform="translate(342.398182 0) scale(0.996264)"/>
    </g>
   </g>
   <g id="text_34">
    <!-- (-1, 2, -2) -->
    <g transform="translate(434.483722 425.474061) scale(0.08 -0.08)">
     <use xlink:href="#CMR17-28" transform="scale(0.996264)"/>
     <use xlink:href="#CMR17-2d" transform="translate(35.280768 0) scale(0.996264)"/>
     <use xlink:href="#CMR17-31" transform="translate(65.356734 0) scale(0.996264)"/>
     <use xlink:href="#CMR17-2c" transform="translate(111.047211 0) scale(0.996264)"/>
     <use xlink:href="#CMR17-32" transform="translate(165.994236 0) scale(0.996264)"/>
     <use xlink:href="#CMR17-2c" transform="translate(211.684713 0) scale(0.996264)"/>
     <use xlink:href="#CMR17-2d" transform="translate(266.631738 0) scale(0.996264)"/>
     <use xlink:href="#CMR17-32" transform="translate(296.707704 0) scale(0.996264)"/>
     <use xlink:href="#CMR17-29" transform="translate(342.398182 0) scale(0.996264)"/>
    </g>
   </g>
   <g id="text_35">
    <!-- (0, 2, -2) -->
    <g transform="translate(549.538066 452.742607) scale(0.08 -0.08)">
     <use xlink:href="#CMR17-28" transform="scale(0.996264)"/>
     <use xlink:href="#CMR17-30" transform="translate(35.280768 0) scale(0.996264)"/>
     <use xlink:href="#CMR17-2c" transform="translate(80.971245 0) scale(0.996264)"/>
     <use xlink:href="#CMR17-32" transform="translate(135.91827 0) scale(0.996264)"/>
     <use xlink:href="#CMR17-2c" transform="translate(181.608747 0) scale(0.996264)"/>
     <use xlink:href="#CMR17-2d" transform="translate(236.555772 0) scale(0.996264)"/>
     <use xlink:href="#CMR17-32" transform="translate(266.631738 0) scale(0.996264)"/>
     <use xlink:href="#CMR17-29" transform="translate(312.322215 0) scale(0.996264)"/>
    </g>
   </g>
   <g id="text_36">
    <!-- (1, 3, 3) -->
    <g transform="translate(651.472734 339.500888) scale(0.08 -0.08)">
     <use xlink:href="#CMR17-28" transform="scale(0.996264)"/>
     <use xlink:href="#CMR17-31" transform="translate(35.280768 0) scale(0.996264)"/>
     <use xlink:href="#CMR17-2c" transform="translate(80.971245 0) scale(0.996264)"/>
     <use xlink:href="#CMR17-33" transform="translate(135.91827 0) scale(0.996264)"/>
     <use xlink:href="#CMR17-2c" transform="translate(181.608747 0) scale(0.996264)"/>
     <use xlink:href="#CMR17-33" transform="translate(236.555772 0) scale(0.996264)"/>
     <use xlink:href="#CMR17-29" transform="translate(282.246249 0) scale(0.996264)"/>
    </g>
   </g>
   <g id="text_37">
    <!-- (0, 3, 2) -->
    <g transform="translate(604.306487 343.522456) scale(0.08 -0.08)">
     <use xlink:href="#CMR17-28" transform="scale(0.996264)"/>
     <use xlink:href="#CMR17-30" transform="translate(35.280768 0) scale(0.996264)"/>
     <use xlink:href="#CMR17-2c" transform="translate(80.971245 0) scale(0.996264)"/>
     <use xlink:href="#CMR17-33" transform="translate(135.91827 0) scale(0.996264)"/>
     <use xlink:href="#CMR17-2c" transform="translate(181.608747 0) scale(0.996264)"/>
     <use xlink:href="#CMR17-32" transform="translate(236.555772 0) scale(0.996264)"/>
     <use xlink:href="#CMR17-29" transform="translate(282.246249 0) scale(0.996264)"/>
    </g>
   </g>
   <g id="text_38">
    <!-- (1, 3, 2) -->
    <g transform="translate(492.239398 314.62115) scale(0.08 -0.08)">
     <use xlink:href="#CMR17-28" transform="scale(0.996264)"/>
     <use xlink:href="#CMR17-31" transform="translate(35.280768 0) scale(0.996264)"/>
     <use xlink:href="#CMR17-2c" transform="translate(80.971245 0) scale(0.996264)"/>
     <use xlink:href="#CMR17-33" transform="translate(135.91827 0) scale(0.996264)"/>
     <use xlink:href="#CMR17-2c" transform="translate(181.608747 0) scale(0.996264)"/>
     <use xlink:href="#CMR17-32" transform="translate(236.555772 0) scale(0.996264)"/>
     <use xlink:href="#CMR17-29" transform="translate(282.246249 0) scale(0.996264)"/>
    </g>
   </g>
   <g id="text_39">
    <!-- (0, 3, 1) -->
    <g transform="translate(434.23238 302.242097) scale(0.08 -0.08)">
     <use xlink:href="#CMR17-28" transform="scale(0.996264)"/>
     <use xlink:href="#CMR17-30" transform="translate(35.280768 0) scale(0.996264)"/>
     <use xlink:href="#CMR17-2c" transform="translate(80.971245 0) scale(0.996264)"/>
     <use xlink:href="#CMR17-33" transform="translate(135.91827 0) scale(0.996264)"/>
     <use xlink:href="#CMR17-2c" transform="translate(181.608747 0) scale(0.996264)"/>
     <use xlink:href="#CMR17-31" transform="translate(236.555772 0) scale(0.996264)"/>
     <use xlink:href="#CMR17-29" transform="translate(282.246249 0) scale(0.996264)"/>
    </g>
   </g>
   <g id="text_40">
    <!-- (-1, 3, 0) -->
    <g transform="translate(367.336933 285.212588) scale(0.08 -0.08)">
     <use xlink:href="#CMR17-28" transform="scale(0.996264)"/>
     <use xlink:href="#CMR17-2d" transform="translate(35.280768 0) scale(0.996264)"/>
     <use xlink:href="#CMR17-31" transform="translate(65.356734 0) scale(0.996264)"/>
     <use xlink:href="#CMR17-2c" transform="translate(111.047211 0) scale(0.996264)"/>
     <use xlink:href="#CMR17-33" transform="translate(165.994236 0) scale(0.996264)"/>
     <use xlink:href="#CMR17-2c" transform="translate(211.684713 0) scale(0.996264)"/>
     <use xlink:href="#CMR17-30" transform="translate(266.631738 0) scale(0.996264)"/>
     <use xlink:href="#CMR17-29" transform="translate(312.322215 0) scale(0.996264)"/>
    </g>
   </g>
   <g id="text_41">
    <!-- (0, 3, 0) -->
    <g transform="translate(257.928167 333.598425) scale(0.08 -0.08)">
     <use xlink:href="#CMR17-28" transform="scale(0.996264)"/>
     <use xlink:href="#CMR17-30" transform="translate(35.280768 0) scale(0.996264)"/>
     <use xlink:href="#CMR17-2c" transform="translate(80.971245 0) scale(0.996264)"/>
     <use xlink:href="#CMR17-33" transform="translate(135.91827 0) scale(0.996264)"/>
     <use xlink:href="#CMR17-2c" transform="translate(181.608747 0) scale(0.996264)"/>
     <use xlink:href="#CMR17-30" transform="translate(236.555772 0) scale(0.996264)"/>
     <use xlink:href="#CMR17-29" transform="translate(282.246249 0) scale(0.996264)"/>
    </g>
   </g>
   <g id="text_42">
    <!-- (-2, 3, -1) -->
    <g transform="translate(295.546254 356.579996) scale(0.08 -0.08)">
     <use xlink:href="#CMR17-28" transform="scale(0.996264)"/>
     <use xlink:href="#CMR17-2d" transform="translate(35.280768 0) scale(0.996264)"/>
     <use xlink:href="#CMR17-32" transform="translate(65.356734 0) scale(0.996264)"/>
     <use xlink:href="#CMR17-2c" transform="translate(111.047211 0) scale(0.996264)"/>
     <use xlink:href="#CMR17-33" transform="translate(165.994236 0) scale(0.996264)"/>
     <use xlink:href="#CMR17-2c" transform="translate(211.684713 0) scale(0.996264)"/>
     <use xlink:href="#CMR17-2d" transform="translate(266.631738 0) scale(0.996264)"/>
     <use xlink:href="#CMR17-31" transform="translate(296.707704 0) scale(0.996264)"/>
     <use xlink:href="#CMR17-29" transform="translate(342.398182 0) scale(0.996264)"/>
    </g>
   </g>
   <g id="text_43">
    <!-- (-1, 3, -1) -->
    <g transform="translate(183.149688 363.919811) scale(0.08 -0.08)">
     <use xlink:href="#CMR17-28" transform="scale(0.996264)"/>
     <use xlink:href="#CMR17-2d" transform="translate(35.280768 0) scale(0.996264)"/>
     <use xlink:href="#CMR17-31" transform="translate(65.356734 0) scale(0.996264)"/>
     <use xlink:href="#CMR17-2c" transform="translate(111.047211 0) scale(0.996264)"/>
     <use xlink:href="#CMR17-33" transform="translate(165.994236 0) scale(0.996264)"/>
     <use xlink:href="#CMR17-2c" transform="translate(211.684713 0) scale(0.996264)"/>
     <use xlink:href="#CMR17-2d" transform="translate(266.631738 0) scale(0.996264)"/>
     <use xlink:href="#CMR17-31" transform="translate(296.707704 0) scale(0.996264)"/>
     <use xlink:href="#CMR17-29" transform="translate(342.398182 0) scale(0.996264)"/>
    </g>
   </g>
   <g id="text_44">
    <!-- (0, 3, -1) -->
    <g transform="translate(104.818584 417.056302) scale(0.08 -0.08)">
     <use xlink:href="#CMR17-28" transform="scale(0.996264)"/>
     <use xlink:href="#CMR17-30" transform="translate(35.280768 0) scale(0.996264)"/>
     <use xlink:href="#CMR17-2c" transform="translate(80.971245 0) scale(0.996264)"/>
     <use xlink:href="#CMR17-33" transform="translate(135.91827 0) scale(0.996264)"/>
     <use xlink:href="#CMR17-2c" transform="translate(181.608747 0) scale(0.996264)"/>
     <use xlink:href="#CMR17-2d" transform="translate(236.555772 0) scale(0.996264)"/>
     <use xlink:href="#CMR17-31" transform="translate(266.631738 0) scale(0.996264)"/>
     <use xlink:href="#CMR17-29" transform="translate(312.322215 0) scale(0.996264)"/>
    </g>
   </g>
   <g id="text_45">
    <!-- (1, 3, -1) -->
    <g transform="translate(216.885673 443.465358) scale(0.08 -0.08)">
     <use xlink:href="#CMR17-28" transform="scale(0.996264)"/>
     <use xlink:href="#CMR17-31" transform="translate(35.280768 0) scale(0.996264)"/>
     <use xlink:href="#CMR17-2c" transform="translate(80.971245 0) scale(0.996264)"/>
     <use xlink:href="#CMR17-33" transform="translate(135.91827 0) scale(0.996264)"/>
     <use xlink:href="#CMR17-2c" transform="translate(181.608747 0) scale(0.996264)"/>
     <use xlink:href="#CMR17-2d" transform="translate(236.555772 0) scale(0.996264)"/>
     <use xlink:href="#CMR17-31" transform="translate(266.631738 0) scale(0.996264)"/>
     <use xlink:href="#CMR17-29" transform="translate(312.322215 0) scale(0.996264)"/>
    </g>
   </g>
   <g id="text_46">
    <!-- (-2, 3, -2) -->
    <g transform="translate(107.778836 394.784543) scale(0.08 -0.08)">
     <use xlink:href="#CMR17-28" transform="scale(0.996264)"/>
     <use xlink:href="#CMR17-2d" transform="translate(35.280768 0) scale(0.996264)"/>
     <use xlink:href="#CMR17-32" transform="translate(65.356734 0) scale(0.996264)"/>
     <use xlink:href="#CMR17-2c" transform="translate(111.047211 0) scale(0.996264)"/>
     <use xlink:href="#CMR17-33" transform="translate(165.994236 0) scale(0.996264)"/>
     <use xlink:href="#CMR17-2c" transform="translate(211.684713 0) scale(0.996264)"/>
     <use xlink:href="#CMR17-2d" transform="translate(266.631738 0) scale(0.996264)"/>
     <use xlink:href="#CMR17-32" transform="translate(296.707704 0) scale(0.996264)"/>
     <use xlink:href="#CMR17-29" transform="translate(342.398182 0) scale(0.996264)"/>
    </g>
   </g>
   <g id="text_47">
    <!-- (-1, 3, -2) -->
    <g transform="translate(177.531657 406.090762) scale(0.08 -0.08)">
     <use xlink:href="#CMR17-28" transform="scale(0.996264)"/>
     <use xlink:href="#CMR17-2d" transform="translate(35.280768 0) scale(0.996264)"/>
     <use xlink:href="#CMR17-31" transform="translate(65.356734 0) scale(0.996264)"/>
     <use xlink:href="#CMR17-2c" transform="translate(111.047211 0) scale(0.996264)"/>
     <use xlink:href="#CMR17-33" transform="translate(165.994236 0) scale(0.996264)"/>
     <use xlink:href="#CMR17-2c" transform="translate(211.684713 0) scale(0.996264)"/>
     <use xlink:href="#CMR17-2d" transform="translate(266.631738 0) scale(0.996264)"/>
     <use xlink:href="#CMR17-32" transform="translate(296.707704 0) scale(0.996264)"/>
     <use xlink:href="#CMR17-29" transform="translate(342.398182 0) scale(0.996264)"/>
    </g>
   </g>
   <g id="text_48">
    <!-- (-2, 3, -3) -->
    <g transform="translate(265.823141 403.969502) scale(0.08 -0.08)">
     <use xlink:href="#CMR17-28" transform="scale(0.996264)"/>
     <use xlink:href="#CMR17-2d" transform="translate(35.280768 0) scale(0.996264)"/>
     <use xlink:href="#CMR17-32" transform="translate(65.356734 0) scale(0.996264)"/>
     <use xlink:href="#CMR17-2c" transform="translate(111.047211 0) scale(0.996264)"/>
     <use xlink:href="#CMR17-33" transform="translate(165.994236 0) scale(0.996264)"/>
     <use xlink:href="#CMR17-2c" transform="translate(211.684713 0) scale(0.996264)"/>
     <use xlink:href="#CMR17-2d" transform="translate(266.631738 0) scale(0.996264)"/>
     <use xlink:href="#CMR17-33" transform="translate(296.707704 0) scale(0.996264)"/>
     <use xlink:href="#CMR17-29" transform="translate(342.398182 0) scale(0.996264)"/>
    </g>
   </g>
   <g id="text_49">
    <!-- (2, 4, 4) -->
    <g transform="translate(539.95302 322.870655) scale(0.08 -0.08)">
     <use xlink:href="#CMR17-28" transform="scale(0.996264)"/>
     <use xlink:href="#CMR17-32" transform="translate(35.280768 0) scale(0.996264)"/>
     <use xlink:href="#CMR17-2c" transform="translate(80.971245 0) scale(0.996264)"/>
     <use xlink:href="#CMR17-34" transform="translate(135.91827 0) scale(0.996264)"/>
     <use xlink:href="#CMR17-2c" transform="translate(181.608747 0) scale(0.996264)"/>
     <use xlink:href="#CMR17-34" transform="translate(236.555772 0) scale(0.996264)"/>
     <use xlink:href="#CMR17-29" transform="translate(282.246249 0) scale(0.996264)"/>
    </g>
   </g>
   <g id="text_50">
    <!-- (2, 4, 3) -->
    <g transform="translate(271.446122 408.158398) scale(0.08 -0.08)">
     <use xlink:href="#CMR17-28" transform="scale(0.996264)"/>
     <use xlink:href="#CMR17-32" transform="translate(35.280768 0) scale(0.996264)"/>
     <use xlink:href="#CMR17-2c" transform="translate(80.971245 0) scale(0.996264)"/>
     <use xlink:href="#CMR17-34" transform="translate(135.91827 0) scale(0.996264)"/>
     <use xlink:href="#CMR17-2c" transform="translate(181.608747 0) scale(0.996264)"/>
     <use xlink:href="#CMR17-33" transform="translate(236.555772 0) scale(0.996264)"/>
     <use xlink:href="#CMR17-29" transform="translate(282.246249 0) scale(0.996264)"/>
    </g>
   </g>
   <g id="text_51">
    <!-- (1, 4, 2) -->
    <g transform="translate(155.518832 417.330278) scale(0.08 -0.08)">
     <use xlink:href="#CMR17-28" transform="scale(0.996264)"/>
     <use xlink:href="#CMR17-31" transform="translate(35.280768 0) scale(0.996264)"/>
     <use xlink:href="#CMR17-2c" transform="translate(80.971245 0) scale(0.996264)"/>
     <use xlink:href="#CMR17-34" transform="translate(135.91827 0) scale(0.996264)"/>
     <use xlink:href="#CMR17-2c" transform="translate(181.608747 0) scale(0.996264)"/>
     <use xlink:href="#CMR17-32" transform="translate(236.555772 0) scale(0.996264)"/>
     <use xlink:href="#CMR17-29" transform="translate(282.246249 0) scale(0.996264)"/>
    </g>
   </g>
   <g id="text_52">
    <!-- (2, 4, 2) -->
    <g transform="translate(140.589415 364.104285) scale(0.08 -0.08)">
     <use xlink:href="#CMR17-28" transform="scale(0.996264)"/>
     <use xlink:href="#CMR17-32" transform="translate(35.280768 0) scale(0.996264)"/>
     <use xlink:href="#CMR17-2c" transform="translate(80.971245 0) scale(0.996264)"/>
     <use xlink:href="#CMR17-34" transform="translate(135.91827 0) scale(0.996264)"/>
     <use xlink:href="#CMR17-2c" transform="translate(181.608747 0) scale(0.996264)"/>
     <use xlink:href="#CMR17-32" transform="translate(236.555772 0) scale(0.996264)"/>
     <use xlink:href="#CMR17-29" transform="translate(282.246249 0) scale(0.996264)"/>
    </g>
   </g>
   <g id="text_53">
    <!-- (0, 4, 1) -->
    <g transform="translate(123.907218 418.99074) scale(0.08 -0.08)">
     <use xlink:href="#CMR17-28" transform="scale(0.996264)"/>
     <use xlink:href="#CMR17-30" transform="translate(35.280768 0) scale(0.996264)"/>
     <use xlink:href="#CMR17-2c" transform="translate(80.971245 0) scale(0.996264)"/>
     <use xlink:href="#CMR17-34" transform="translate(135.91827 0) scale(0.996264)"/>
     <use xlink:href="#CMR17-2c" transform="translate(181.608747 0) scale(0.996264)"/>
     <use xlink:href="#CMR17-31" transform="translate(236.555772 0) scale(0.996264)"/>
     <use xlink:href="#CMR17-29" transform="translate(282.246249 0) scale(0.996264)"/>
    </g>
   </g>
   <g id="text_54">
    <!-- (1, 4, 1) -->
    <g transform="translate(235.974307 410.452387) scale(0.08 -0.08)">
     <use xlink:href="#CMR17-28" transform="scale(0.996264)"/>
     <use xlink:href="#CMR17-31" transform="translate(35.280768 0) scale(0.996264)"/>
     <use xlink:href="#CMR17-2c" transform="translate(80.971245 0) scale(0.996264)"/>
     <use xlink:href="#CMR17-34" transform="translate(135.91827 0) scale(0.996264)"/>
     <use xlink:href="#CMR17-2c" transform="translate(181.608747 0) scale(0.996264)"/>
     <use xlink:href="#CMR17-31" transform="translate(236.555772 0) scale(0.996264)"/>
     <use xlink:href="#CMR17-29" transform="translate(282.246249 0) scale(0.996264)"/>
    </g>
   </g>
   <g id="text_55">
    <!-- (2, 4, 1) -->
    <g transform="translate(347.877472 397.774594) scale(0.08 -0.08)">
     <use xlink:href="#CMR17-28" transform="scale(0.996264)"/>
     <use xlink:href="#CMR17-32" transform="translate(35.280768 0) scale(0.996264)"/>
     <use xlink:href="#CMR17-2c" transform="translate(80.971245 0) scale(0.996264)"/>
     <use xlink:href="#CMR17-34" transform="translate(135.91827 0) scale(0.996264)"/>
     <use xlink:href="#CMR17-2c" transform="translate(181.608747 0) scale(0.996264)"/>
     <use xlink:href="#CMR17-31" transform="translate(236.555772 0) scale(0.996264)"/>
     <use xlink:href="#CMR17-29" transform="translate(282.246249 0) scale(0.996264)"/>
    </g>
   </g>
   <g id="text_56">
    <!-- (0, 4, 0) -->
    <g transform="translate(313.996856 390.539276) scale(0.08 -0.08)">
     <use xlink:href="#CMR17-28" transform="scale(0.996264)"/>
     <use xlink:href="#CMR17-30" transform="translate(35.280768 0) scale(0.996264)"/>
     <use xlink:href="#CMR17-2c" transform="translate(80.971245 0) scale(0.996264)"/>
     <use xlink:href="#CMR17-34" transform="translate(135.91827 0) scale(0.996264)"/>
     <use xlink:href="#CMR17-2c" transform="translate(181.608747 0) scale(0.996264)"/>
     <use xlink:href="#CMR17-30" transform="translate(236.555772 0) scale(0.996264)"/>
     <use xlink:href="#CMR17-29" transform="translate(282.246249 0) scale(0.996264)"/>
    </g>
   </g>
   <g id="text_57">
    <!-- (1, 4, 0) -->
    <g transform="translate(426.063946 377.931733) scale(0.08 -0.08)">
     <use xlink:href="#CMR17-28" transform="scale(0.996264)"/>
     <use xlink:href="#CMR17-31" transform="translate(35.280768 0) scale(0.996264)"/>
     <use xlink:href="#CMR17-2c" transform="translate(80.971245 0) scale(0.996264)"/>
     <use xlink:href="#CMR17-34" transform="translate(135.91827 0) scale(0.996264)"/>
     <use xlink:href="#CMR17-2c" transform="translate(181.608747 0) scale(0.996264)"/>
     <use xlink:href="#CMR17-30" transform="translate(236.555772 0) scale(0.996264)"/>
     <use xlink:href="#CMR17-29" transform="translate(282.246249 0) scale(0.996264)"/>
    </g>
   </g>
   <g id="text_58">
    <!-- (2, 4, 0) -->
    <g transform="translate(537.967111 337.075123) scale(0.08 -0.08)">
     <use xlink:href="#CMR17-28" transform="scale(0.996264)"/>
     <use xlink:href="#CMR17-32" transform="translate(35.280768 0) scale(0.996264)"/>
     <use xlink:href="#CMR17-2c" transform="translate(80.971245 0) scale(0.996264)"/>
     <use xlink:href="#CMR17-34" transform="translate(135.91827 0) scale(0.996264)"/>
     <use xlink:href="#CMR17-2c" transform="translate(181.608747 0) scale(0.996264)"/>
     <use xlink:href="#CMR17-30" transform="translate(236.555772 0) scale(0.996264)"/>
     <use xlink:href="#CMR17-29" transform="translate(282.246249 0) scale(0.996264)"/>
    </g>
   </g>
   <g id="text_59">
    <!-- (0, 4, -1) -->
    <g transform="translate(483.872271 359.471352) scale(0.08 -0.08)">
     <use xlink:href="#CMR17-28" transform="scale(0.996264)"/>
     <use xlink:href="#CMR17-30" transform="translate(35.280768 0) scale(0.996264)"/>
     <use xlink:href="#CMR17-2c" transform="translate(80.971245 0) scale(0.996264)"/>
     <use xlink:href="#CMR17-34" transform="translate(135.91827 0) scale(0.996264)"/>
     <use xlink:href="#CMR17-2c" transform="translate(181.608747 0) scale(0.996264)"/>
     <use xlink:href="#CMR17-2d" transform="translate(236.555772 0) scale(0.996264)"/>
     <use xlink:href="#CMR17-31" transform="translate(266.631738 0) scale(0.996264)"/>
     <use xlink:href="#CMR17-29" transform="translate(312.322215 0) scale(0.996264)"/>
    </g>
   </g>
   <g id="text_60">
    <!-- (1, 4, -1) -->
    <g transform="translate(595.93936 316.537683) scale(0.08 -0.08)">
     <use xlink:href="#CMR17-28" transform="scale(0.996264)"/>
     <use xlink:href="#CMR17-31" transform="translate(35.280768 0) scale(0.996264)"/>
     <use xlink:href="#CMR17-2c" transform="translate(80.971245 0) scale(0.996264)"/>
     <use xlink:href="#CMR17-34" transform="translate(135.91827 0) scale(0.996264)"/>
     <use xlink:href="#CMR17-2c" transform="translate(181.608747 0) scale(0.996264)"/>
     <use xlink:href="#CMR17-2d" transform="translate(236.555772 0) scale(0.996264)"/>
     <use xlink:href="#CMR17-31" transform="translate(266.631738 0) scale(0.996264)"/>
     <use xlink:href="#CMR17-29" transform="translate(312.322215 0) scale(0.996264)"/>
    </g>
   </g>
   <g id="text_61">
    <!-- (-1, 4, -2) -->
    <g transform="translate(521.4256 82.076145) scale(0.08 -0.08)">
     <use xlink:href="#CMR17-28" transform="scale(0.996264)"/>
     <use xlink:href="#CMR17-2d" transform="translate(35.280768 0) scale(0.996264)"/>
     <use xlink:href="#CMR17-31" transform="translate(65.356734 0) scale(0.996264)"/>
     <use xlink:href="#CMR17-2c" transform="translate(111.047211 0) scale(0.996264)"/>
     <use xlink:href="#CMR17-34" transform="translate(165.994236 0) scale(0.996264)"/>
     <use xlink:href="#CMR17-2c" transform="translate(211.684713 0) scale(0.996264)"/>
     <use xlink:href="#CMR17-2d" transform="translate(266.631738 0) scale(0.996264)"/>
     <use xlink:href="#CMR17-32" transform="translate(296.707704 0) scale(0.996264)"/>
     <use xlink:href="#CMR17-29" transform="translate(342.398182 0) scale(0.996264)"/>
    </g>
   </g>
   <g id="text_62">
    <!-- (0, 4, -2) -->
    <g transform="translate(636.479944 291.258425) scale(0.08 -0.08)">
     <use xlink:href="#CMR17-28" transform="scale(0.996264)"/>
     <use xlink:href="#CMR17-30" transform="translate(35.280768 0) scale(0.996264)"/>
     <use xlink:href="#CMR17-2c" transform="translate(80.971245 0) scale(0.996264)"/>
     <use xlink:href="#CMR17-34" transform="translate(135.91827 0) scale(0.996264)"/>
     <use xlink:href="#CMR17-2c" transform="translate(181.608747 0) scale(0.996264)"/>
     <use xlink:href="#CMR17-2d" transform="translate(236.555772 0) scale(0.996264)"/>
     <use xlink:href="#CMR17-32" transform="translate(266.631738 0) scale(0.996264)"/>
     <use xlink:href="#CMR17-29" transform="translate(312.322215 0) scale(0.996264)"/>
    </g>
   </g>
   <g id="text_63">
    <!-- (-2, 4, -4) -->
    <g transform="translate(534.307443 330.133795) scale(0.08 -0.08)">
     <use xlink:href="#CMR17-28" transform="scale(0.996264)"/>
     <use xlink:href="#CMR17-2d" transform="translate(35.280768 0) scale(0.996264)"/>
     <use xlink:href="#CMR17-32" transform="translate(65.356734 0) scale(0.996264)"/>
     <use xlink:href="#CMR17-2c" transform="translate(111.047211 0) scale(0.996264)"/>
     <use xlink:href="#CMR17-34" transform="translate(165.994236 0) scale(0.996264)"/>
     <use xlink:href="#CMR17-2c" transform="translate(211.684713 0) scale(0.996264)"/>
     <use xlink:href="#CMR17-2d" transform="translate(266.631738 0) scale(0.996264)"/>
     <use xlink:href="#CMR17-34" transform="translate(296.707704 0) scale(0.996264)"/>
     <use xlink:href="#CMR17-29" transform="translate(342.398182 0) scale(0.996264)"/>
    </g>
   </g>
   <g id="text_64">
    <!-- Calibration Discrepancies (per Transition) -->
    <g transform="translate(309.149026 57.542822) scale(0.144 -0.144)">
     <defs>
      <path id="CMR17-43" d="M 3974 4289 
C 3974 4403 3968 4410 3930 4410 
C 3904 4410 3898 4403 3853 4327 
L 3571 3792 
C 3258 4187 2874 4416 2381 4416 
C 1286 4416 294 3456 294 2148 
C 294 826 1286 -128 2387 -128 
C 3366 -128 3974 730 3974 1461 
C 3974 1524 3974 1550 3917 1550 
C 3866 1550 3866 1531 3859 1474 
C 3808 585 3168 38 2477 38 
C 1824 38 781 495 781 2147 
C 781 3805 1843 4250 2464 4250 
C 3187 4250 3712 3628 3834 2745 
C 3846 2668 3846 2655 3904 2655 
C 3974 2655 3974 2668 3974 2783 
L 3974 4289 
z
" transform="scale(0.015625)"/>
      <path id="CMR17-6c" d="M 979 4396 
L 218 4326 
L 218 4160 
C 595 4160 653 4122 653 3817 
L 653 426 
C 653 184 627 153 218 153 
L 218 -13 
C 371 0 653 0 813 0 
C 979 0 1261 0 1414 -13 
L 1414 153 
C 1005 153 979 178 979 426 
L 979 4396 
z
" transform="scale(0.015625)"/>
      <path id="CMR17-62" d="M 960 4396 
L 198 4326 
L 198 4160 
C 576 4160 634 4122 634 3817 
L 634 -13 
L 749 -13 
L 934 441 
C 1120 141 1395 -64 1766 -64 
C 2406 -64 3053 500 3053 1370 
C 3053 2188 2477 2790 1830 2790 
C 1434 2790 1152 2579 960 2330 
L 960 4396 
z
M 973 2004 
C 973 2118 973 2138 1062 2272 
C 1312 2657 1670 2688 1792 2688 
C 1984 2688 2643 2585 2643 1376 
C 2643 108 1888 38 1734 38 
C 1536 38 1248 114 1043 486 
C 973 608 973 621 973 735 
L 973 2004 
z
" transform="scale(0.015625)"/>
     </defs>
     <use xlink:href="#CMR17-43" transform="scale(0.996264)"/>
     <use xlink:href="#CMR17-61" transform="translate(66.509881 0) scale(0.996264)"/>
     <use xlink:href="#CMR17-6c" transform="translate(112.200358 0) scale(0.996264)"/>
     <use xlink:href="#CMR17-69" transform="translate(137.071416 0) scale(0.996264)"/>
     <use xlink:href="#CMR17-62" transform="translate(161.942475 0) scale(0.996264)"/>
     <use xlink:href="#CMR17-72" transform="translate(212.837844 0) scale(0.996264)"/>
     <use xlink:href="#CMR17-61" transform="translate(248.118612 0) scale(0.996264)"/>
     <use xlink:href="#CMR17-74" transform="translate(293.809089 0) scale(0.996264)"/>
     <use xlink:href="#CMR17-69" transform="translate(329.089857 0) scale(0.996264)"/>
     <use xlink:href="#CMR17-6f" transform="translate(353.960916 0) scale(0.996264)"/>
     <use xlink:href="#CMR17-6e" transform="translate(399.651393 0) scale(0.996264)"/>
     <use xlink:href="#CMR17-44" transform="translate(480.622729 0) scale(0.996264)"/>
     <use xlink:href="#CMR17-69" transform="translate(551.016285 0) scale(0.996264)"/>
     <use xlink:href="#CMR17-73" transform="translate(575.887343 0) scale(0.996264)"/>
     <use xlink:href="#CMR17-63" transform="translate(611.688681 0) scale(0.996264)"/>
     <use xlink:href="#CMR17-72" transform="translate(652.174341 0) scale(0.996264)"/>
     <use xlink:href="#CMR17-65" transform="translate(687.455109 0) scale(0.996264)"/>
     <use xlink:href="#CMR17-70" transform="translate(727.94077 0) scale(0.996264)"/>
     <use xlink:href="#CMR17-61" transform="translate(778.836139 0) scale(0.996264)"/>
     <use xlink:href="#CMR17-6e" transform="translate(824.526616 0) scale(0.996264)"/>
     <use xlink:href="#CMR17-63" transform="translate(875.421986 0) scale(0.996264)"/>
     <use xlink:href="#CMR17-69" transform="translate(915.907647 0) scale(0.996264)"/>
     <use xlink:href="#CMR17-65" transform="translate(940.778705 0) scale(0.996264)"/>
     <use xlink:href="#CMR17-73" transform="translate(981.264366 0) scale(0.996264)"/>
     <use xlink:href="#CMR17-28" transform="translate(1047.14167 0) scale(0.996264)"/>
     <use xlink:href="#CMR17-70" transform="translate(1082.422437 0) scale(0.996264)"/>
     <use xlink:href="#CMR17-65" transform="translate(1135.920246 0) scale(0.996264)"/>
     <use xlink:href="#CMR17-72" transform="translate(1176.405906 0) scale(0.996264)"/>
     <use xlink:href="#CMR17-54" transform="translate(1241.762641 0) scale(0.996264)"/>
     <use xlink:href="#CMR17-72" transform="translate(1300.465266 0) scale(0.996264)"/>
     <use xlink:href="#CMR17-61" transform="translate(1335.746034 0) scale(0.996264)"/>
     <use xlink:href="#CMR17-6e" transform="translate(1381.436511 0) scale(0.996264)"/>
     <use xlink:href="#CMR17-73" transform="translate(1432.33188 0) scale(0.996264)"/>
     <use xlink:href="#CMR17-69" transform="translate(1468.133218 0) scale(0.996264)"/>
     <use xlink:href="#CMR17-74" transform="translate(1493.004277 0) scale(0.996264)"/>
     <use xlink:href="#CMR17-69" transform="translate(1528.285044 0) scale(0.996264)"/>
     <use xlink:href="#CMR17-6f" transform="translate(1553.156103 0) scale(0.996264)"/>
     <use xlink:href="#CMR17-6e" transform="translate(1598.84658 0) scale(0.996264)"/>
     <use xlink:href="#CMR17-29" transform="translate(1649.74195 0) scale(0.996264)"/>
    </g>
   </g>
  </g>
 </g>
 <defs>
  <clipPath id="p7db75ebc10">
   <rect x="107.098381" y="63.542822" width="664.009963" height="407.733108"/>
  </clipPath>
 </defs>
</svg>
